<svg width="19" height="20" viewBox="0 0 19 20" fill="none" xmlns="http://www.w3.org/2000/svg">
<path fill-rule="evenodd" clip-rule="evenodd" d="M14.25 8.25C14.25 10.0449 12.7949 11.5 11 11.5C9.2051 11.5 7.75 10.0449 7.75 8.25C7.75 6.45507 9.2051 5 11 5C12.7949 5 14.25 6.45507 14.25 8.25ZM13.25 8.25C13.25 9.4926 12.2426 10.5 11 10.5C9.7574 10.5 8.75 9.4926 8.75 8.25C8.75 7.00736 9.7574 6 11 6C12.2426 6 13.25 7.00736 13.25 8.25Z" fill="white"/>
<path d="M11 14.5C10.0045 14.5 9.05539 14.6937 8.18759 15.045C8.01899 15.1132 7.85345 15.1874 7.69119 15.2673C7.44346 15.3893 7.13826 15.3093 6.99999 15.0703C6.86172 14.8312 6.94279 14.5239 7.18955 14.4C7.39262 14.298 7.60037 14.2039 7.81238 14.118C8.79739 13.7193 9.87369 13.5 11 13.5C12.1263 13.5 13.2026 13.7193 14.1876 14.118C14.3996 14.2039 14.6074 14.298 14.8104 14.4C15.0572 14.5239 15.1383 14.8312 15 15.0703C14.8617 15.3093 14.5565 15.3893 14.3088 15.2673C14.1465 15.1874 13.981 15.1132 13.8124 15.045C12.9446 14.6937 11.9955 14.5 11 14.5Z" fill="white"/>
<path fill-rule="evenodd" clip-rule="evenodd" d="M5 0C3.89543 0 3 0.89543 3 2V4.5H0.5C0.22386 4.5 0 4.72386 0 5C0 5.27614 0.22386 5.5 0.5 5.5H3V9.5H0.5C0.22386 9.5 0 9.7239 0 10C0 10.2761 0.22386 10.5 0.5 10.5H3V14.5H0.5C0.22386 14.5 0 14.7239 0 15C0 15.2761 0.22386 15.5 0.5 15.5H3V18C3 19.1046 3.89543 20 5 20H17C18.1046 20 19 19.1046 19 18V2C19 0.89543 18.1046 0 17 0H5ZM18 2C18 1.44772 17.5523 1 17 1H5C4.44772 1 4 1.44772 4 2V18C4 18.5523 4.44772 19 5 19H17C17.5523 19 18 18.5523 18 18V2Z" fill="white"/>
</svg>
