<svg width="22" height="18" viewBox="0 0 22 18" fill="none" xmlns="http://www.w3.org/2000/svg">
<path d="M9.70499 16.069L3.56066 9.92466H20C20.4142 9.92466 20.75 9.58886 20.75 9.17466C20.75 8.76036 20.4142 8.42466 20 8.42466H3.56066L9.70499 2.28033C9.99789 1.98744 9.99789 1.51256 9.70499 1.21967C9.66839 1.18306 9.62889 1.15102 9.58729 1.12356C9.29619 0.931351 8.90059 0.963392 8.64429 1.21967L1.21967 8.64426C0.926777 8.93716 0.926777 9.41206 1.21967 9.70496L8.64429 17.1296C8.6809 17.1662 8.72036 17.1983 8.76199 17.2257C9.05309 17.4179 9.44869 17.3859 9.70499 17.1296C9.99789 16.8367 9.99789 16.3618 9.70499 16.069Z" fill="#008000" stroke="#008000"/>
</svg>
