<svg width="22" height="18" viewBox="0 0 22 18" fill="none" xmlns="http://www.w3.org/2000/svg">
<path d="M9.9549 15.8944L3.81057 9.7501H20.2499C20.6641 9.7501 20.9999 9.4143 20.9999 9.0001C20.9999 8.5858 20.6641 8.2501 20.2499 8.2501H3.81057L9.9549 2.10577C10.2478 1.81288 10.2478 1.338 9.9549 1.04511C9.9183 1.0085 9.8788 0.976461 9.8372 0.949001C9.5461 0.756791 9.1505 0.788831 8.8942 1.04511L1.46958 8.4697C1.17669 8.7626 1.17669 9.2375 1.46958 9.5304L8.8942 16.955C8.93081 16.9916 8.97027 17.0237 9.0119 17.0511C9.303 17.2433 9.6986 17.2113 9.9549 16.955C10.2478 16.6621 10.2478 16.1872 9.9549 15.8944Z" fill="#333130" stroke="#333130"/>
</svg>
