<svg width="20" height="20" viewBox="0 0 20 20" fill="none" xmlns="http://www.w3.org/2000/svg">
<path d="M4.5 5.5C4.5 5.22386 4.72386 5 5 5H15C15.2761 5 15.5 5.22386 15.5 5.5C15.5 5.77614 15.2761 6 15 6H5C4.72386 6 4.5 5.77614 4.5 5.5Z" fill="white"/>
<path d="M5 9C4.72386 9 4.5 9.2239 4.5 9.5C4.5 9.7761 4.72386 10 5 10H15C15.2761 10 15.5 9.7761 15.5 9.5C15.5 9.2239 15.2761 9 15 9H5Z" fill="white"/>
<path fill-rule="evenodd" clip-rule="evenodd" d="M0 2C0 0.89543 0.89543 0 2 0H18C19.1046 0 20 0.89543 20 2V13C20 14.1046 19.1046 15 18 15H13.375L10.8716 19.4505C10.4893 20.1302 9.5107 20.1302 9.1284 19.4505L6.625 15H2C0.89543 15 0 14.1046 0 13V2ZM6.625 14C6.98627 14 7.31946 14.1949 7.49658 14.5097L10 18.9603L12.5034 14.5097C12.6805 14.1949 13.0137 14 13.375 14H18C18.5523 14 19 13.5523 19 13V2C19 1.44772 18.5523 1 18 1H2C1.44772 1 1 1.44772 1 2V13C1 13.5523 1.44772 14 2 14H6.625Z" fill="white"/>
</svg>
