<svg width="9" height="16" viewBox="0 0 9 16" fill="none" xmlns="http://www.w3.org/2000/svg">
<path d="M1.12081 13.7453L6.86608 8.00008L1.12081 2.25481C1.09029 2.2243 1.0636 2.19142 1.04071 2.15676C0.987506 2.07617 0.954923 1.98598 0.942957 1.89362C0.939482 1.86682 0.937748 1.83984 0.937748 1.81287C0.937748 1.67205 0.985031 1.53124 1.07961 1.41629C1.09247 1.40067 1.1062 1.38552 1.12081 1.37092C1.13224 1.35948 1.14401 1.34857 1.1561 1.33821C1.40165 1.12738 1.77205 1.13829 2.00469 1.37092L8.19183 7.55808C8.30908 7.67533 8.37491 7.83433 8.37491 8.00008C8.37491 8.16583 8.30908 8.32475 8.19183 8.442L2.00469 14.6292C1.97417 14.6597 1.9413 14.6864 1.90664 14.7092C1.66405 14.8694 1.33437 14.8427 1.12081 14.6292C1.09029 14.5987 1.0636 14.5657 1.04071 14.5312C0.88054 14.2885 0.907232 13.9588 1.12081 13.7453Z" fill="#585A60" stroke="#585A60" stroke-width="0.4"/>
</svg>
