<svg width="18" height="10" viewBox="0 0 18 10" fill="none" xmlns="http://www.w3.org/2000/svg">
<path d="M2.10748 0.54511L9.0018 7.4394L15.8961 0.54511C16.0791 0.36205 16.3333 0.293401 16.5696 0.339171C16.7115 0.366631 16.8469 0.43527 16.9567 0.54511C16.9933 0.58172 17.0254 0.621181 17.0528 0.662761C17.245 0.953881 17.213 1.34949 16.9567 1.60577L9.5321 9.0304C9.3914 9.171 9.2007 9.2501 9.0018 9.2501C8.8029 9.2501 8.6121 9.171 8.4714 9.0304L1.04682 1.60577C0.753926 1.31288 0.753926 0.838001 1.04682 0.54511C1.33971 0.25222 1.81459 0.25222 2.10748 0.54511Z" fill="white" stroke="white" stroke-width="0.4"/>
</svg>
