<svg width="20" height="21" viewBox="0 0 20 21" fill="none" xmlns="http://www.w3.org/2000/svg">
<path d="M4.25639 7.6208L10.0017 13.366L15.7469 7.6208C15.8994 7.46825 16.1112 7.41105 16.3082 7.44919C16.4264 7.47207 16.5392 7.52927 16.6307 7.6208C16.6612 7.65131 16.688 7.6842 16.7108 7.71885C16.871 7.96145 16.8443 8.29112 16.6307 8.50469L10.4436 14.6919C10.3263 14.809 10.1674 14.875 10.0017 14.875C9.83591 14.875 9.67691 14.809 9.55966 14.6919L3.37251 8.50469C3.12843 8.26061 3.12843 7.86488 3.37251 7.6208C3.61658 7.37673 4.01232 7.37673 4.25639 7.6208Z" fill="#666261"/>
</svg>
