<svg width="9" height="14" viewBox="0 0 9 14" fill="none" xmlns="http://www.w3.org/2000/svg">
<path d="M7.74183 1.11339L7.74183 1.11339C7.90781 0.947417 7.90781 0.678323 7.74183 0.512353L7.74183 1.11339ZM7.74183 1.11339L1.99661 6.85866L1.85519 7.00008M7.74183 1.11339L1.85519 7.00008M1.85519 7.00008L1.99661 7.14151M1.85519 7.00008L1.99661 7.14151M1.99661 7.14151L7.74183 12.8868L7.74185 12.8868M1.99661 7.14151L7.74185 12.8868M7.74185 12.8868C7.90779 13.0527 7.90782 13.3218 7.74183 13.4877M7.74185 12.8868L7.74183 13.4877M7.74183 13.4877C7.57585 13.6537 7.30682 13.6537 7.14084 13.4877M7.74183 13.4877H7.14084M7.14084 13.4877L0.953655 7.3006M7.14084 13.4877L0.953655 7.3006M0.953655 7.3006C0.953647 7.3006 0.953638 7.30059 0.953629 7.30058M0.953655 7.3006L0.953629 7.30058M0.953629 7.30058C0.873901 7.22081 0.82915 7.11275 0.82915 7.00008M0.953629 7.30058L0.82915 7.00008M0.82915 7.00008C0.82915 6.88732 0.873911 6.77927 0.953629 6.69951M0.82915 7.00008L0.953629 6.69951M0.953629 6.69951C0.953638 6.6995 0.953646 6.69949 0.953655 6.69948L0.953629 6.69951Z" fill="#585A60" stroke="#585A60" stroke-width="0.4"/>
</svg>
