<svg width="24" height="24" viewBox="0 0 24 24" fill="none" xmlns="http://www.w3.org/2000/svg">
<g clip-path="url(#clip0_660_7766)">
<mask id="mask0_660_7766" style="mask-type:luminance" maskUnits="userSpaceOnUse" x="0" y="0" width="24" height="24">
<path d="M24 0H0V24H24V0Z" fill="white"/>
</mask>
<g mask="url(#mask0_660_7766)">
<path fill-rule="evenodd" clip-rule="evenodd" d="M1.36191 13.2333C0.498805 12.0055 0 10.5545 0 9C0 4.58172 4.02944 1 9 1C13.9706 1 18 4.58172 18 9C18 13.4183 13.9706 17 9 17C8.80759 17 8.6166 16.9946 8.42719 16.9841C7.98453 16.9594 7.55054 16.9062 7.12752 16.8266C7.12545 16.8262 7.12337 16.8258 7.12129 16.8254C7.11088 16.8235 7.10047 16.8215 7.09006 16.8195C6.5704 16.7197 6.06745 16.58 5.58545 16.4042L1.73074 17.5055C0.976391 17.721 0.278969 17.0236 0.494498 16.2693L1.36191 13.2333ZM2.18001 12.6582C2.35369 12.9053 2.4064 13.2177 2.32343 13.508L1.45602 16.544L5.31073 15.4426C5.5137 15.3846 5.72982 15.3924 5.92813 15.4647C6.87142 15.8088 7.90843 16 9 16C13.5323 16 17 12.7585 17 9C17 5.24148 13.5323 2 9 2C4.46774 2 1 5.24148 1 9C1 10.3349 1.42711 11.5872 2.18001 12.6582Z" fill="white"/>
<path d="M18.2367 5.5332C18.4236 5.93689 18.5789 6.35634 18.6995 6.78934C21.2891 7.97485 23.0004 10.3601 23.0004 13.0004C23.0004 14.3353 22.5733 15.5876 21.8204 16.6586C21.6467 16.9057 21.594 17.2181 21.677 17.5084L22.5444 20.5444L18.6897 19.443C18.4867 19.385 18.2706 19.3928 18.0723 19.4651C17.129 19.8092 16.092 20.0004 15.0004 20.0004C12.784 20.0004 10.8221 19.2252 9.39598 17.9934C9.26466 17.9981 9.1328 18.0004 9.00045 18.0004C8.63864 18.0004 8.28106 17.9831 7.92871 17.9493C9.57677 19.8075 12.1318 21.0004 15.0004 21.0004C16.209 21.0004 17.362 20.7886 18.415 20.4046L22.2697 21.5059C23.024 21.7214 23.7214 21.024 23.5059 20.2697L22.6385 17.2337C23.5016 16.0059 24.0004 14.5549 24.0004 13.0004C24.0004 9.59615 21.6083 6.68854 18.2367 5.5332Z" fill="white"/>
</g>
</g>
<defs>
<clipPath id="clip0_660_7766">
<rect width="24" height="24" fill="white"/>
</clipPath>
</defs>
</svg>
