<svg width="37" height="39" viewBox="0 0 37 39" fill="none" xmlns="http://www.w3.org/2000/svg">
<path d="M36.5 20.5C36.5 30.165 28.7173 38.5 18.5 38.5C8.28273 38.5 0 30.165 0 20.5C0 10.835 8.28273 3 18.5 3C28.7173 3 36.5 10.835 36.5 20.5Z" fill="#D68F30"/>
<path fill-rule="evenodd" clip-rule="evenodd" d="M18.5 37C28.7173 37 37 28.7173 37 18.5C37 8.28273 28.7173 0 18.5 0C8.28273 0 0 8.28273 0 18.5C0 28.7173 8.28273 37 18.5 37ZM18.5 35C27.6127 35 35 27.6127 35 18.5C35 9.3873 27.6127 2 18.5 2C9.3873 2 2 9.3873 2 18.5C2 27.6127 9.3873 35 18.5 35Z" fill="#FFF176"/>
<path d="M35 18.5C35 27.6127 27.6127 35 18.5 35C9.3873 35 2 27.6127 2 18.5C2 9.3873 9.3873 2 18.5 2C27.6127 2 35 9.3873 35 18.5Z" fill="#F2BC1A"/>
<path d="M2.02091 19C1.90443 16.848 2.27905 14.6648 3.03459 12.6191C3.82161 10.5798 5.02732 8.69365 6.54784 7.09218C9.60147 3.88298 14.034 2.0219 18.5011 2C22.9682 2.02502 27.4038 3.88298 30.4512 7.09531C31.9748 8.69365 33.1774 10.5829 33.9644 12.6191C34.7231 14.6679 35.0977 16.848 34.9781 19H34.9151C34.9086 16.8533 34.4809 14.7284 33.6559 12.7443C32.8294 10.7623 31.6222 8.95943 30.1017 7.43625C28.5803 5.91468 26.7726 4.70523 24.7815 3.87673C22.7909 3.05083 20.6551 2.62557 18.4979 2.62557C16.3407 2.62557 14.205 3.05083 12.2144 3.87673C10.2232 4.70523 8.41554 5.91468 6.89412 7.43625C5.37304 8.95892 4.16574 10.762 3.33995 12.7443C2.51499 14.7284 2.08727 16.8533 2.08072 19H2.02091Z" fill="#E17E01"/>
<g filter="url(#filter0_d_1397_21227)">
<path d="M27.9983 22.7521C28.0032 23.4667 28.0149 24.146 27.752 24.8038C27.2323 26.104 25.9234 26.9987 24.4889 26.9991C20.1712 27.0004 15.8534 27.0001 11.5356 26.9994C9.79067 26.9991 8.33653 25.7949 8.06385 24.1216C8.02909 23.9083 8.00615 23.6907 8.00563 23.475C8.00114 21.6115 8.01289 19.7479 8.00008 17.8845C7.98891 16.2592 9.12302 14.7786 10.957 14.4562C11.1656 14.4196 11.3841 14.4293 11.598 14.4292C15.8622 14.4278 20.1265 14.4446 24.3905 14.4201C26.086 14.4103 27.5433 15.5297 27.8905 17.052C27.9476 17.3026 27.9921 17.562 27.9935 17.8175C28.0027 19.4519 27.9982 21.0864 27.9983 22.7521ZM21.7063 24.0648C22.5061 23.9728 23.0183 23.2891 22.9987 22.5851C22.9637 21.327 22.9639 20.0667 22.9983 18.8086C23.0183 18.0791 22.4539 17.3375 21.495 17.3335C19.1607 17.3235 16.8263 17.3238 14.492 17.3333C13.5373 17.3373 12.9745 18.0902 12.9997 18.8148C13.0441 20.0931 13.0394 21.3747 13.0023 22.6535C12.9785 23.4693 13.7486 24.0814 14.4839 24.0743C16.8715 24.0512 19.2595 24.0655 21.7063 24.0648Z" fill="#FFF176"/>
<path d="M16.0096 10.0481C16.1586 10.0296 16.2813 10.0043 16.404 10.004C17.4779 10.0008 18.5519 10.009 19.6258 10.0001C20.5658 9.99222 21.1069 10.5981 21.2109 11.473C21.2322 11.8521 21.2109 12.72 21.2109 12.72H14.7797C14.7797 12.72 14.7797 11.5021 14.9319 10.9281C15.0334 10.442 15.4515 10.157 16.0096 10.0481Z" fill="#FFF176"/>
</g>
<defs>
<filter id="filter0_d_1397_21227" x="8" y="10" width="20" height="17.8" filterUnits="userSpaceOnUse" color-interpolation-filters="sRGB">
<feFlood flood-opacity="0" result="BackgroundImageFix"/>
<feColorMatrix in="SourceAlpha" type="matrix" values="0 0 0 0 0 0 0 0 0 0 0 0 0 0 0 0 0 0 127 0" result="hardAlpha"/>
<feOffset dy="0.8"/>
<feComposite in2="hardAlpha" operator="out"/>
<feColorMatrix type="matrix" values="0 0 0 0 0.882353 0 0 0 0 0.494118 0 0 0 0 0.00392157 0 0 0 1 0"/>
<feBlend mode="normal" in2="BackgroundImageFix" result="effect1_dropShadow_1397_21227"/>
<feBlend mode="normal" in="SourceGraphic" in2="effect1_dropShadow_1397_21227" result="shape"/>
</filter>
</defs>
</svg>
