<svg width="24" height="24" viewBox="0 0 24 24" fill="none" xmlns="http://www.w3.org/2000/svg">
<path d="M12.0001 23.2385C17.9399 23.2385 22.7551 18.4233 22.7551 12.4835C22.7551 6.54369 17.9399 1.72852 12.0001 1.72852C6.0603 1.72852 1.24512 6.54369 1.24512 12.4835C1.24512 18.4233 6.0603 23.2385 12.0001 23.2385Z" fill="#D68F30"/>
<path d="M1.97607 15.2773V16.376C2.08857 16.6666 2.2142 16.9535 2.35107 17.231V15.2773H1.97607ZM3.20232 17.3454V18.6654C3.35232 18.8773 3.50795 19.0854 3.67107 19.286V17.3454H3.20232ZM4.82607 19.0704V20.4935C5.00795 20.6566 5.19545 20.8123 5.38857 20.9623V19.0704H4.82607ZM6.82482 20.381V21.911C7.00857 22.0123 7.19607 22.1079 7.38732 22.1998V20.381H6.82482ZM9.0917 21.2154V22.8354C9.27732 22.8879 9.46482 22.9348 9.6542 22.9779V21.2154H9.0917ZM11.7448 21.5041V23.231C11.8292 23.2329 11.9136 23.2366 11.9998 23.2366C12.1029 23.2366 12.2061 23.231 12.3073 23.2291V21.5041H11.7448ZM14.3979 21.2023V22.9648C14.5873 22.9216 14.7748 22.8729 14.9604 22.8204V21.2023H14.3979ZM16.6592 20.3566V22.1773C16.8504 22.0854 17.0379 21.986 17.2217 21.8829V20.3566H16.6592ZM18.6523 19.0348V20.9285C18.8453 20.7776 19.0329 20.62 19.2148 20.456V19.0348H18.6523ZM20.8292 17.3041H20.3604V19.2448C20.5236 19.0423 20.6811 18.8341 20.8292 18.6204V17.3041ZM22.0479 15.2285H21.6729V17.186C21.8098 16.9029 21.9354 16.6123 22.0479 16.3179V15.2285Z" fill="#BC6F00"/>
<path d="M12.0001 22.2707C17.9399 22.2707 22.7551 17.4556 22.7551 11.5157C22.7551 5.57592 17.9399 0.760742 12.0001 0.760742C6.0603 0.760742 1.24512 5.57592 1.24512 11.5157C1.24512 17.4556 6.0603 22.2707 12.0001 22.2707Z" fill="#FFF176"/>
<path d="M12 21.3135C17.4107 21.3135 21.7969 16.9273 21.7969 11.5166C21.7969 6.10594 17.4107 1.71973 12 1.71973C6.58934 1.71973 2.20312 6.10594 2.20312 11.5166C2.20312 16.9273 6.58934 21.3135 12 21.3135Z" fill="#F2BC1A"/>
<path d="M2.18433 11.8908C2.11495 10.6008 2.33808 9.29207 2.78808 8.06582C3.25683 6.84332 3.97495 5.7127 4.88058 4.7527C6.69933 2.82895 9.33933 1.71332 12 1.7002C14.6606 1.7152 17.3025 2.82895 19.1175 4.75457C20.025 5.7127 20.7412 6.84519 21.21 8.06582C21.6618 9.29394 21.885 10.6008 21.8137 11.8908H21.7762C21.7723 10.604 21.5176 9.33019 21.0262 8.14082C20.5339 6.95277 19.8149 5.87201 18.9093 4.95895C18.0032 4.04684 16.9265 3.32184 15.7406 2.8252C14.555 2.33011 13.2829 2.07519 11.9981 2.07519C10.7133 2.07519 9.44119 2.33011 8.25558 2.8252C7.06966 3.32184 5.99298 4.04684 5.08683 4.95895C4.18087 5.87171 3.46179 6.95255 2.96995 8.14082C2.4786 9.33019 2.22385 10.604 2.21995 11.8908H2.18433Z" fill="#E08F00"/>
<path d="M12.0001 0.762695C6.06012 0.762695 1.24512 5.5777 1.24512 11.5177C1.24512 17.4577 6.06012 22.2727 12.0001 22.2727C17.9401 22.2727 22.7551 17.4577 22.7551 11.5177C22.7551 5.5777 17.9401 0.762695 12.0001 0.762695ZM12.0001 21.3146C6.58887 21.3146 2.20324 16.9289 2.20324 11.5177C2.20324 6.10457 6.58887 1.71895 12.0001 1.71895C17.4114 1.71895 21.797 6.10457 21.797 11.5158C21.797 16.9271 17.4114 21.3146 12.0001 21.3146Z" fill="#FFF176"/>
<path d="M7.12316 4.00391L7.36129 4.74078L8.13754 4.44453V4.74078L7.50941 5.19641L7.74941 5.63516V5.93328L7.12316 5.47766L6.49504 5.93328V5.63516L6.73504 5.19641L6.10879 4.74078V4.44453L6.88316 4.74078L7.12316 4.00391ZM4.12691 8.23391L4.36691 8.97078L5.14129 8.67453V8.97078L4.51504 9.42641L4.75504 9.86703V10.1633L4.12691 9.70766L3.50066 10.1633V9.86703L3.74066 9.42641L3.11254 8.97078V8.67453L3.88879 8.97078L4.12691 8.23391ZM4.03879 13.4483L4.27879 14.1852L5.05316 13.8889V14.1852L4.42691 14.6408L4.66691 15.0814V15.3777L4.03879 14.922L3.41254 15.3777V15.0814L3.65254 14.6408L3.02441 14.1852V13.8889L3.80066 14.1852L4.03879 13.4483ZM7.23754 17.5883L7.47754 18.3252L8.25191 18.0289V18.3252L7.62566 18.7808L7.86566 19.2195V19.5177L7.23754 19.062L6.61129 19.5177V19.2195L6.85129 18.7808L6.22316 18.3252V18.0289L6.99941 18.3252L7.23754 17.5883ZM16.8769 4.00391L16.6388 4.74078L15.8625 4.44453V4.74078L16.4907 5.19641L16.2507 5.63516V5.93328L16.8769 5.47766L17.505 5.93328V5.63516L17.265 5.19641L17.8913 4.74078V4.44453L17.1169 4.74078L16.8769 4.00391ZM19.8732 8.23391L19.6332 8.97078L18.8588 8.67453V8.97078L19.485 9.42641L19.245 9.86703V10.1633L19.8732 9.70766L20.4994 10.1633V9.86703L20.2594 9.42641L20.8875 8.97078V8.67453L20.1113 8.97078L19.8732 8.23391ZM19.9613 13.4483L19.7213 14.1852L18.9469 13.8889V14.1852L19.5732 14.6408L19.3332 15.0814V15.3777L19.9613 14.922L20.5875 15.3777V15.0814L20.3475 14.6408L20.9757 14.1852V13.8889L20.1994 14.1852L19.9613 13.4483ZM16.7625 17.5883L16.5225 18.3252L15.7482 18.0289V18.3252L16.3744 18.7808L16.1344 19.2195V19.5177L16.7625 19.062L17.3888 19.5177V19.2195L17.1488 18.7808L17.7769 18.3252V18.0289L17.0007 18.3252L16.7625 17.5883Z" fill="#D38200"/>
<path d="M16.7624 17.2895L17.0005 18.0263H17.7768L17.1487 18.482L17.3887 19.2188L16.7624 18.7632L16.1343 19.2188L16.3743 18.482L15.748 18.0263H16.5224L16.7624 17.2895ZM19.9612 13.1513L20.1993 13.8882H20.9755L20.3474 14.3438L20.5874 15.0807L19.9612 14.6251L19.333 15.0807L19.573 14.3438L18.9468 13.8882H19.7212L19.9612 13.1513ZM19.873 7.93695L20.1112 8.67383H20.8874L20.2593 9.12945L20.4993 9.86633L19.873 9.4107L19.2449 9.86633L19.4849 9.12945L18.8587 8.67383H19.633L19.873 7.93695ZM16.8768 3.70508L17.1168 4.44195H17.8912L17.2649 4.89758L17.5049 5.63445L16.8768 5.17883L16.2505 5.63445L16.4905 4.89758L15.8624 4.44195H16.6387L16.8768 3.70508Z" fill="#FFF176"/>
<path d="M12.0095 19.2188L12.2495 19.9556L13.0239 19.6594V19.9556L12.3976 20.4113L12.6376 20.8519V21.1481L12.0095 20.6925L11.3832 21.1481V20.8519L11.6232 20.4113L10.9951 19.9556V19.6594L11.7714 19.9556L12.0095 19.2188Z" fill="#D38200"/>
<path d="M12.0095 18.8242L12.2495 19.5611H13.0239L12.3976 20.0167L12.6376 20.7536L12.0095 20.298L11.3832 20.7536L11.6232 20.0167L10.9951 19.5611H11.7714L12.0095 18.8242Z" fill="#FFF176"/>
<path d="M12.0095 2.41699L12.2495 3.15387L13.0239 2.85762V3.15387L12.3976 3.60949L12.6376 4.05012V4.34637L12.0095 3.89074L11.3832 4.34637V4.05012L11.6232 3.60949L10.9951 3.15387V2.85762L11.7714 3.15387L12.0095 2.41699Z" fill="#D38200"/>
<path d="M12.0094 2.12012L12.2494 2.85699H13.0238L12.3975 3.31262L12.6375 4.04949L12.0094 3.59387L11.3832 4.04949L11.6232 3.31262L10.995 2.85699H11.7713L12.0094 2.12012ZM7.23754 17.2889L6.99941 18.0257H6.22316L6.85129 18.4814L6.61129 19.2182L7.23754 18.7626L7.86566 19.2182L7.62566 18.4814L8.25191 18.0257H7.47754L7.23754 17.2889ZM4.03879 13.1507L3.80066 13.8876H3.02441L3.65254 14.3432L3.41254 15.0801L4.03879 14.6245L4.66691 15.0801L4.42691 14.3432L5.05316 13.8876H4.27879L4.03879 13.1507ZM4.12691 7.93637L3.88879 8.67324H3.11254L3.74066 9.12887L3.50066 9.86574L4.12691 9.41012L4.75504 9.86574L4.51504 9.12887L5.14129 8.67324H4.36691L4.12691 7.93637ZM7.12316 3.70449L6.88316 4.44137H6.10879L6.73504 4.89699L6.49504 5.63387L7.12316 5.17824L7.74941 5.63387L7.50941 4.89699L8.13754 4.44137H7.36129L7.12316 3.70449Z" fill="#FFF176"/>
<mask id="path-13-outside-1_1388_11034" maskUnits="userSpaceOnUse" x="2" y="9" width="19" height="7" fill="black">
<rect fill="white" x="2" y="9" width="19" height="7"/>
<path d="M6.144 15.056C5.62133 15.056 5.14133 14.9333 4.704 14.688C4.26667 14.4427 3.92 14.104 3.664 13.672C3.408 13.2347 3.28 12.7413 3.28 12.192C3.28 11.648 3.408 11.16 3.664 10.728C3.92 10.2907 4.26667 9.94933 4.704 9.704C5.14133 9.45867 5.62133 9.336 6.144 9.336C6.672 9.336 7.152 9.45867 7.584 9.704C8.02133 9.94933 8.36533 10.2907 8.616 10.728C8.872 11.16 9 11.648 9 12.192C9 12.7413 8.872 13.2347 8.616 13.672C8.36533 14.104 8.02133 14.4427 7.584 14.688C7.14667 14.9333 6.66667 15.056 6.144 15.056ZM6.144 14.056C6.48 14.056 6.776 13.9813 7.032 13.832C7.288 13.6773 7.488 13.4587 7.632 13.176C7.776 12.8933 7.848 12.5653 7.848 12.192C7.848 11.8187 7.776 11.4933 7.632 11.216C7.488 10.9333 7.288 10.7173 7.032 10.568C6.776 10.4187 6.48 10.344 6.144 10.344C5.808 10.344 5.50933 10.4187 5.248 10.568C4.992 10.7173 4.792 10.9333 4.648 11.216C4.504 11.4933 4.432 11.8187 4.432 12.192C4.432 12.5653 4.504 12.8933 4.648 13.176C4.792 13.4587 4.992 13.6773 5.248 13.832C5.50933 13.9813 5.808 14.056 6.144 14.056ZM9.88125 12.2C9.88125 11.6507 10.0039 11.16 10.2493 10.728C10.4999 10.2907 10.8386 9.952 11.2653 9.712C11.6973 9.46667 12.1799 9.344 12.7133 9.344C13.3373 9.344 13.8839 9.504 14.3533 9.824C14.8226 10.144 15.1506 10.5867 15.3373 11.152H14.0493C13.9213 10.8853 13.7399 10.6853 13.5053 10.552C13.2759 10.4187 13.0093 10.352 12.7053 10.352C12.3799 10.352 12.0893 10.4293 11.8333 10.584C11.5826 10.7333 11.3853 10.9467 11.2413 11.224C11.1026 11.5013 11.0333 11.8267 11.0333 12.2C11.0333 12.568 11.1026 12.8933 11.2413 13.176C11.3853 13.4533 11.5826 13.6693 11.8333 13.824C12.0893 13.9733 12.3799 14.048 12.7053 14.048C13.0093 14.048 13.2759 13.9813 13.5053 13.848C13.7399 13.7093 13.9213 13.5067 14.0493 13.24H15.3373C15.1506 13.8107 14.8226 14.256 14.3533 14.576C13.8893 14.8907 13.3426 15.048 12.7133 15.048C12.1799 15.048 11.6973 14.928 11.2653 14.688C10.8386 14.4427 10.4999 14.104 10.2493 13.672C10.0039 13.24 9.88125 12.7493 9.88125 12.2ZM19.8699 9.416V13.336C19.8699 13.88 19.7125 14.304 19.3979 14.608C19.0832 14.9067 18.6619 15.056 18.1339 15.056C17.6005 15.056 17.1685 14.9013 16.8379 14.592C16.5125 14.2827 16.3499 13.8507 16.3499 13.296H17.4699C17.4752 13.536 17.5312 13.7227 17.6379 13.856C17.7499 13.9893 17.9099 14.056 18.1179 14.056C18.3205 14.056 18.4752 13.992 18.5819 13.864C18.6885 13.736 18.7419 13.56 18.7419 13.336V9.416H19.8699Z"/>
</mask>
<path d="M6.144 15.056C5.62133 15.056 5.14133 14.9333 4.704 14.688C4.26667 14.4427 3.92 14.104 3.664 13.672C3.408 13.2347 3.28 12.7413 3.28 12.192C3.28 11.648 3.408 11.16 3.664 10.728C3.92 10.2907 4.26667 9.94933 4.704 9.704C5.14133 9.45867 5.62133 9.336 6.144 9.336C6.672 9.336 7.152 9.45867 7.584 9.704C8.02133 9.94933 8.36533 10.2907 8.616 10.728C8.872 11.16 9 11.648 9 12.192C9 12.7413 8.872 13.2347 8.616 13.672C8.36533 14.104 8.02133 14.4427 7.584 14.688C7.14667 14.9333 6.66667 15.056 6.144 15.056ZM6.144 14.056C6.48 14.056 6.776 13.9813 7.032 13.832C7.288 13.6773 7.488 13.4587 7.632 13.176C7.776 12.8933 7.848 12.5653 7.848 12.192C7.848 11.8187 7.776 11.4933 7.632 11.216C7.488 10.9333 7.288 10.7173 7.032 10.568C6.776 10.4187 6.48 10.344 6.144 10.344C5.808 10.344 5.50933 10.4187 5.248 10.568C4.992 10.7173 4.792 10.9333 4.648 11.216C4.504 11.4933 4.432 11.8187 4.432 12.192C4.432 12.5653 4.504 12.8933 4.648 13.176C4.792 13.4587 4.992 13.6773 5.248 13.832C5.50933 13.9813 5.808 14.056 6.144 14.056ZM9.88125 12.2C9.88125 11.6507 10.0039 11.16 10.2493 10.728C10.4999 10.2907 10.8386 9.952 11.2653 9.712C11.6973 9.46667 12.1799 9.344 12.7133 9.344C13.3373 9.344 13.8839 9.504 14.3533 9.824C14.8226 10.144 15.1506 10.5867 15.3373 11.152H14.0493C13.9213 10.8853 13.7399 10.6853 13.5053 10.552C13.2759 10.4187 13.0093 10.352 12.7053 10.352C12.3799 10.352 12.0893 10.4293 11.8333 10.584C11.5826 10.7333 11.3853 10.9467 11.2413 11.224C11.1026 11.5013 11.0333 11.8267 11.0333 12.2C11.0333 12.568 11.1026 12.8933 11.2413 13.176C11.3853 13.4533 11.5826 13.6693 11.8333 13.824C12.0893 13.9733 12.3799 14.048 12.7053 14.048C13.0093 14.048 13.2759 13.9813 13.5053 13.848C13.7399 13.7093 13.9213 13.5067 14.0493 13.24H15.3373C15.1506 13.8107 14.8226 14.256 14.3533 14.576C13.8893 14.8907 13.3426 15.048 12.7133 15.048C12.1799 15.048 11.6973 14.928 11.2653 14.688C10.8386 14.4427 10.4999 14.104 10.2493 13.672C10.0039 13.24 9.88125 12.7493 9.88125 12.2ZM19.8699 9.416V13.336C19.8699 13.88 19.7125 14.304 19.3979 14.608C19.0832 14.9067 18.6619 15.056 18.1339 15.056C17.6005 15.056 17.1685 14.9013 16.8379 14.592C16.5125 14.2827 16.3499 13.8507 16.3499 13.296H17.4699C17.4752 13.536 17.5312 13.7227 17.6379 13.856C17.7499 13.9893 17.9099 14.056 18.1179 14.056C18.3205 14.056 18.4752 13.992 18.5819 13.864C18.6885 13.736 18.7419 13.56 18.7419 13.336V9.416H19.8699Z" fill="#FFF176"/>
<path d="M4.704 14.688L4.85078 14.4264L4.704 14.688ZM3.664 13.672L3.40509 13.8236L3.40591 13.8249L3.664 13.672ZM3.664 10.728L3.92209 10.8809L3.9229 10.8796L3.664 10.728ZM4.704 9.704L4.55722 9.44236L4.55722 9.44236L4.704 9.704ZM7.584 9.704L7.43585 9.96487L7.43722 9.96564L7.584 9.704ZM8.616 10.728L8.3557 10.8772L8.35791 10.8809L8.616 10.728ZM8.616 13.672L8.35709 13.5204L8.35652 13.5214L8.616 13.672ZM7.584 14.688L7.43722 14.4264L7.43722 14.4264L7.584 14.688ZM7.032 13.832L7.18318 14.0912L7.18713 14.0888L7.032 13.832ZM7.632 13.176L7.89931 13.3122L7.89931 13.3122L7.632 13.176ZM7.632 11.216L7.36468 11.3522L7.36575 11.3542L7.632 11.216ZM7.032 10.568L6.88084 10.8271L6.88084 10.8271L7.032 10.568ZM5.248 10.568L5.09915 10.3075L5.09684 10.3089L5.248 10.568ZM4.648 11.216L4.91426 11.3542L4.91531 11.3522L4.648 11.216ZM4.648 13.176L4.91531 13.0398L4.91531 13.0398L4.648 13.176ZM5.248 13.832L5.09282 14.0889L5.09916 14.0925L5.248 13.832ZM6.144 14.756C5.67047 14.756 5.24135 14.6455 4.85078 14.4264L4.55722 14.9496C5.04132 15.2212 5.57219 15.356 6.144 15.356V14.756ZM4.85078 14.4264C4.45953 14.2069 4.15123 13.9057 3.92209 13.5191L3.40591 13.8249C3.68877 14.3023 4.07381 14.6785 4.55722 14.9496L4.85078 14.4264ZM3.9229 13.5204C3.69606 13.1329 3.58 12.6927 3.58 12.192H2.98C2.98 12.79 3.11994 13.3364 3.4051 13.8236L3.9229 13.5204ZM3.58 12.192C3.58 11.6972 3.69579 11.2628 3.92209 10.8809L3.40591 10.5751C3.12021 11.0572 2.98 11.5988 2.98 12.192H3.58ZM3.9229 10.8796C4.15227 10.4877 4.46045 10.1846 4.85078 9.96564L4.55722 9.44236C4.07288 9.71406 3.68773 10.0936 3.4051 10.5764L3.9229 10.8796ZM4.85078 9.96564C5.24135 9.74654 5.67047 9.636 6.144 9.636V9.036C5.57219 9.036 5.04132 9.17079 4.55722 9.44236L4.85078 9.96564ZM6.144 9.636C6.62344 9.636 7.05186 9.7468 7.43585 9.96487L7.73215 9.44313C7.25214 9.17053 6.72056 9.036 6.144 9.036V9.636ZM7.43722 9.96564C7.82699 10.1843 8.13188 10.4866 8.35572 10.8772L8.87628 10.5788C8.59879 10.0947 8.21567 9.71437 7.73078 9.44236L7.43722 9.96564ZM8.35791 10.8809C8.58421 11.2628 8.7 11.6972 8.7 12.192H9.3C9.3 11.5988 9.15979 11.0572 8.87409 10.5751L8.35791 10.8809ZM8.7 12.192C8.7 12.6927 8.58394 13.1329 8.3571 13.5204L8.8749 13.8236C9.16006 13.3364 9.3 12.79 9.3 12.192H8.7ZM8.35652 13.5214C8.13292 13.9068 7.82792 14.2072 7.43722 14.4264L7.73078 14.9496C8.21475 14.6781 8.59775 14.3012 8.87548 13.8226L8.35652 13.5214ZM7.43722 14.4264C7.04665 14.6455 6.61753 14.756 6.144 14.756V15.356C6.71581 15.356 7.24668 15.2212 7.73078 14.9496L7.43722 14.4264ZM6.144 14.356C6.52588 14.356 6.87541 14.2707 7.18316 14.0911L6.88084 13.5729C6.67659 13.692 6.43412 13.756 6.144 13.756V14.356ZM7.18713 14.0888C7.49399 13.9034 7.73151 13.6416 7.89931 13.3122L7.36469 13.0398C7.24449 13.2758 7.08201 13.4513 6.87687 13.5752L7.18713 14.0888ZM7.89931 13.3122C8.06829 12.9805 8.148 12.6043 8.148 12.192H7.548C7.548 12.5263 7.48371 12.8062 7.36469 13.0398L7.89931 13.3122ZM8.148 12.192C8.148 11.7799 8.06835 11.4054 7.89825 11.0778L7.36575 11.3542C7.48365 11.5813 7.548 11.8575 7.548 12.192H8.148ZM7.89931 11.0798C7.73111 10.7497 7.49241 10.4893 7.18316 10.3089L6.88084 10.8271C7.08359 10.9454 7.24489 11.117 7.36469 11.3522L7.89931 11.0798ZM7.18316 10.3089C6.87541 10.1293 6.52588 10.044 6.144 10.044V10.644C6.43412 10.644 6.67659 10.708 6.88084 10.8271L7.18316 10.3089ZM6.144 10.044C5.762 10.044 5.41092 10.1294 5.09916 10.3075L5.39684 10.8285C5.60775 10.708 5.854 10.644 6.144 10.644V10.044ZM5.09684 10.3089C4.78759 10.4893 4.54889 10.7497 4.38069 11.0798L4.91531 11.3522C5.03511 11.117 5.19641 10.9454 5.39916 10.8271L5.09684 10.3089ZM4.38175 11.0778C4.21165 11.4054 4.132 11.7799 4.132 12.192H4.732C4.732 11.8575 4.79635 11.5813 4.91425 11.3542L4.38175 11.0778ZM4.132 12.192C4.132 12.6043 4.21171 12.9805 4.38069 13.3122L4.91531 13.0398C4.79629 12.8062 4.732 12.5263 4.732 12.192H4.132ZM4.38069 13.3122C4.54849 13.6416 4.78601 13.9034 5.09287 14.0888L5.40313 13.5752C5.19799 13.4513 5.03551 13.2758 4.91531 13.0398L4.38069 13.3122ZM5.09916 14.0925C5.41092 14.2706 5.762 14.356 6.144 14.356V13.756C5.854 13.756 5.60775 13.692 5.39684 13.5715L5.09916 14.0925ZM10.2493 10.728L9.98897 10.5788L9.98838 10.5799L10.2493 10.728ZM11.2653 9.712L11.4123 9.97347L11.4134 9.97287L11.2653 9.712ZM15.3373 11.152V11.452H15.7522L15.6221 11.0579L15.3373 11.152ZM14.0493 11.152L13.7788 11.2818L13.8605 11.452H14.0493V11.152ZM13.5053 10.552L13.3545 10.8114L13.357 10.8128L13.5053 10.552ZM11.8333 10.584L11.9868 10.8417L11.9884 10.8408L11.8333 10.584ZM11.2413 11.224L10.975 11.0857L10.9729 11.0898L11.2413 11.224ZM11.2413 13.176L10.9718 13.3082L10.975 13.3142L11.2413 13.176ZM11.8333 13.824L11.6757 14.0794L11.6821 14.0831L11.8333 13.824ZM13.5053 13.848L13.656 14.1074L13.6579 14.1063L13.5053 13.848ZM14.0493 13.24V12.94H13.8605L13.7788 13.1102L14.0493 13.24ZM15.3373 13.24L15.6224 13.3333L15.751 12.94H15.3373V13.24ZM14.3533 14.576L14.5216 14.8243L14.5223 14.8239L14.3533 14.576ZM11.2653 14.688L11.1157 14.9481L11.1196 14.9502L11.2653 14.688ZM10.2493 13.672L9.98837 13.8202L9.98977 13.8226L10.2493 13.672ZM10.1813 12.2C10.1813 11.697 10.2931 11.2583 10.5101 10.8761L9.98838 10.5799C9.71476 11.0617 9.58125 11.6044 9.58125 12.2H10.1813ZM10.5095 10.8772C10.7341 10.4853 11.0343 10.1861 11.4123 9.97347L11.1182 9.45053C10.6429 9.71788 10.2657 10.096 9.98897 10.5788L10.5095 10.8772ZM11.4134 9.97287C11.7969 9.75506 12.2279 9.644 12.7133 9.644V9.044C12.1319 9.044 11.5976 9.17827 11.1171 9.45113L11.4134 9.97287ZM12.7133 9.644C13.2832 9.644 13.7696 9.78917 14.1842 10.0719L14.5223 9.57613C13.9982 9.21883 13.3913 9.044 12.7133 9.044V9.644ZM14.1842 10.0719C14.5964 10.3529 14.8853 10.7401 15.0524 11.2461L15.6221 11.0579C15.4158 10.4332 15.0488 9.93514 14.5223 9.57613L14.1842 10.0719ZM15.3373 10.852H14.0493V11.452H15.3373V10.852ZM14.3197 11.0222C14.1679 10.7059 13.9464 10.4576 13.6535 10.2912L13.357 10.8128C13.5335 10.9131 13.6746 11.0647 13.7788 11.2818L14.3197 11.0222ZM13.656 10.2926C13.3746 10.129 13.0544 10.052 12.7053 10.052V10.652C12.9641 10.652 13.1773 10.7083 13.3545 10.8114L13.656 10.2926ZM12.7053 10.052C12.3302 10.052 11.985 10.1418 11.6781 10.3272L11.9884 10.8408C12.1935 10.7168 12.4296 10.652 12.7053 10.652V10.052ZM11.6797 10.3263C11.3777 10.5062 11.1428 10.7625 10.975 11.0858L11.5075 11.3622C11.6277 11.1308 11.7875 10.9605 11.9868 10.8417L11.6797 10.3263ZM10.9729 11.0898C10.8096 11.4165 10.7333 11.7895 10.7333 12.2H11.3333C11.3333 11.8638 11.3956 11.5862 11.5096 11.3582L10.9729 11.0898ZM10.7333 12.2C10.7333 12.6061 10.8099 12.9779 10.9719 13.3081L11.5106 13.0439C11.3952 12.8087 11.3333 12.5299 11.3333 12.2H10.7333ZM10.975 13.3142C11.1424 13.6367 11.3761 13.8944 11.6757 14.0793L11.9908 13.5687C11.7891 13.4443 11.6281 13.27 11.5075 13.0378L10.975 13.3142ZM11.6821 14.0831C11.9884 14.2618 12.3321 14.348 12.7053 14.348V13.748C12.4277 13.748 12.1901 13.6849 11.9844 13.5649L11.6821 14.0831ZM12.7053 14.348C13.0544 14.348 13.3746 14.271 13.656 14.1074L13.3545 13.5886C13.1773 13.6917 12.9641 13.748 12.7053 13.748V14.348ZM13.6579 14.1063C13.948 13.9348 14.1683 13.6853 14.3197 13.3698L13.7788 13.1102C13.6742 13.3281 13.5318 13.4839 13.3526 13.5897L13.6579 14.1063ZM14.0493 13.54H15.3373V12.94H14.0493V13.54ZM15.0521 13.1467C14.8848 13.6583 14.5956 14.0476 14.1842 14.3281L14.5223 14.8239C15.0495 14.4644 15.4164 13.963 15.6224 13.3333L15.0521 13.1467ZM14.1849 14.3277C13.7765 14.6046 13.2902 14.748 12.7133 14.748V15.348C13.395 15.348 14.002 15.1767 14.5216 14.8243L14.1849 14.3277ZM12.7133 14.748C12.2267 14.748 11.7949 14.6391 11.4109 14.4258L11.1196 14.9502C11.5996 15.2169 12.1331 15.348 12.7133 15.348V14.748ZM11.4148 14.4279C11.0344 14.2092 10.7334 13.9086 10.5087 13.5214L9.98977 13.8226C10.2664 14.2994 10.6427 14.6761 11.1157 14.9481L11.4148 14.4279ZM10.5101 13.5239C10.2931 13.1417 10.1813 12.703 10.1813 12.2H9.58125C9.58125 12.7956 9.71476 13.3383 9.98838 13.8201L10.5101 13.5239ZM19.8699 9.416H20.1699V9.116H19.8699V9.416ZM19.3979 14.608L19.6044 14.8256L19.6063 14.8238L19.3979 14.608ZM16.8379 14.592L16.6312 14.8094L16.6329 14.8111L16.8379 14.592ZM16.3499 13.296V12.996H16.0499V13.296H16.3499ZM17.4699 13.296L17.7698 13.2893L17.7633 12.996H17.4699V13.296ZM17.6379 13.856L17.4035 14.0435L17.4082 14.049L17.6379 13.856ZM18.5819 13.864L18.8123 14.0561L18.8123 14.0561L18.5819 13.864ZM18.7419 9.416V9.116H18.4419V9.416H18.7419ZM19.5699 9.416V13.336H20.1699V9.416H19.5699ZM19.5699 13.336C19.5699 13.8197 19.432 14.1579 19.1894 14.3922L19.6063 14.8238C19.9931 14.4501 20.1699 13.9403 20.1699 13.336H19.5699ZM19.1913 14.3904C18.944 14.6252 18.6027 14.756 18.1339 14.756V15.356C18.7211 15.356 19.2224 15.1882 19.6044 14.8256L19.1913 14.3904ZM18.1339 14.756C17.6622 14.756 17.3082 14.6212 17.0428 14.3729L16.6329 14.8111C17.0289 15.1815 17.5389 15.356 18.1339 15.356V14.756ZM17.0446 14.3746C16.7923 14.1347 16.6499 13.7892 16.6499 13.296H16.0499C16.0499 13.9122 16.2328 14.4306 16.6312 14.8094L17.0446 14.3746ZM16.3499 13.596H17.4699V12.996H16.3499V13.596ZM17.1699 13.3027C17.1762 13.5824 17.2421 13.8415 17.4036 14.0434L17.8721 13.6686C17.8204 13.6039 17.7743 13.4896 17.7698 13.2893L17.1699 13.3027ZM17.4082 14.049C17.5884 14.2635 17.8403 14.356 18.1179 14.356V13.756C17.9795 13.756 17.9114 13.7152 17.8676 13.663L17.4082 14.049ZM18.1179 14.356C18.3884 14.356 18.6364 14.2672 18.8123 14.0561L18.3514 13.6719C18.314 13.7168 18.2527 13.756 18.1179 13.756V14.356ZM18.8123 14.0561C18.9773 13.8581 19.0419 13.6059 19.0419 13.336H18.4419C18.4419 13.5141 18.3997 13.6139 18.3514 13.6719L18.8123 14.0561ZM19.0419 13.336V9.416H18.4419V13.336H19.0419ZM18.7419 9.716H19.8699V9.116H18.7419V9.716Z" fill="#CB4417" mask="url(#path-13-outside-1_1388_11034)"/>
</svg>
