<svg width="24" height="24" viewBox="0 0 24 24" fill="none" xmlns="http://www.w3.org/2000/svg">
<path d="M5 2.5C5 2.22386 5.22386 2 5.5 2H18.5C18.7761 2 19 2.22386 19 2.5C19 2.77614 18.7761 3 18.5 3H5.5C5.22386 3 5 2.77614 5 2.5Z" fill="white"/>
<path d="M10.1504 15.2611C10.1504 15.723 10.6504 16.0116 11.0504 15.7807L14.1003 14.0199C14.1503 13.9911 14.1941 13.9568 14.2316 13.9184C14.4941 13.6501 14.4504 13.1827 14.1003 12.9807L11.0504 11.2199C10.6504 10.989 10.1504 11.2776 10.1504 11.7395V15.2611Z" fill="white"/>
<path fill-rule="evenodd" clip-rule="evenodd" d="M2 8C2 6.89543 2.89543 6 4 6H20C21.1046 6 22 6.89543 22 8V19C22 20.1046 21.1046 21 20 21H4C2.89543 21 2 20.1046 2 19V8ZM3 8C3 7.44772 3.44772 7 4 7H20C20.5523 7 21 7.44772 21 8V19C21 19.5523 20.5523 20 20 20H4C3.44772 20 3 19.5523 3 19V8Z" fill="white"/>
</svg>
