<svg width="24" height="24" viewBox="0 0 24 24" fill="none" xmlns="http://www.w3.org/2000/svg">
<path fill-rule="evenodd" clip-rule="evenodd" d="M3 5C3 3.89543 3.89543 3 5 3H9C10.1046 3 11 3.89543 11 5V9C11 10.1046 10.1046 11 9 11H5C3.89543 11 3 10.1046 3 9V5ZM4 5C4 4.44772 4.44772 4 5 4H9C9.55229 4 10 4.44772 10 5V9C10 9.55229 9.55229 10 9 10H5C4.44772 10 4 9.55229 4 9V5Z" fill="white"/>
<path fill-rule="evenodd" clip-rule="evenodd" d="M5 13C3.89543 13 3 13.8954 3 15V19C3 20.1046 3.89543 21 5 21H9C10.1046 21 11 20.1046 11 19V15C11 13.8954 10.1046 13 9 13H5ZM10 15C10 14.4477 9.55229 14 9 14H5C4.44772 14 4 14.4477 4 15V19C4 19.5523 4.44772 20 5 20H9C9.55229 20 10 19.5523 10 19V15Z" fill="white"/>
<path fill-rule="evenodd" clip-rule="evenodd" d="M15 3C13.8954 3 13 3.89543 13 5V9C13 10.1046 13.8954 11 15 11H19C20.1046 11 21 10.1046 21 9V5C21 3.89543 20.1046 3 19 3H15ZM20 5C20 4.44772 19.5523 4 19 4H15C14.4477 4 14 4.44772 14 5V9C14 9.55229 14.4477 10 15 10H19C19.5523 10 20 9.55229 20 9V5Z" fill="white"/>
<path d="M17 21C16.7239 21 16.5 20.7761 16.5 20.5V17.5H13.5C13.2239 17.5 13 17.2761 13 17C13 16.7239 13.2239 16.5 13.5 16.5H16.5V13.5C16.5 13.2239 16.7239 13 17 13C17.2761 13 17.5 13.2239 17.5 13.5V16.5H20.5C20.7761 16.5 21 16.7239 21 17C21 17.2761 20.7761 17.5 20.5 17.5H17.5V20.5C17.5 20.7761 17.2761 21 17 21Z" fill="white"/>
</svg>
