<svg width="22" height="17" viewBox="0 0 22 17" fill="none" xmlns="http://www.w3.org/2000/svg">
<path d="M1.05176 8.822C0.982747 8.61459 0.982747 8.39041 1.05176 8.183C2.43876 4.01 6.37576 1 11.0158 1C15.6538 1 19.5888 4.007 20.9788 8.178C21.0488 8.385 21.0488 8.609 20.9788 8.817C19.5928 12.99 15.6558 16 11.0158 16C6.37776 16 2.44176 12.993 1.05176 8.822Z" stroke="#888888" stroke-width="1.2" stroke-linecap="round" stroke-linejoin="round"/>
<path d="M14.0157 8.5C14.0157 9.29565 13.6997 10.0587 13.1371 10.6213C12.5745 11.1839 11.8114 11.5 11.0157 11.5C10.2201 11.5 9.45704 11.1839 8.89443 10.6213C8.33182 10.0587 8.01575 9.29565 8.01575 8.5C8.01575 7.70435 8.33182 6.94129 8.89443 6.37868C9.45704 5.81607 10.2201 5.5 11.0157 5.5C11.8114 5.5 12.5745 5.81607 13.1371 6.37868C13.6997 6.94129 14.0157 7.70435 14.0157 8.5Z" stroke="#888888" stroke-width="1.2" stroke-linecap="round" stroke-linejoin="round"/>
</svg>
