<svg width="32" height="32" viewBox="0 0 32 32" fill="none" xmlns="http://www.w3.org/2000/svg">
<g clip-path="url(#clip0_1159_19346)">
<path d="M30 28H2V30H30V28Z" fill="white"/>
<path d="M13.4796 5.14963L19.1696 13.2896L19.9696 14.4396L21.3196 14.0796L25.8396 12.8696C26.2062 12.7697 26.5929 12.7697 26.9596 12.8696C27.2465 12.942 27.5118 13.0825 27.7329 13.2792C27.954 13.4759 28.1244 13.723 28.2296 13.9996C28.3196 14.2407 28.3589 14.4977 28.3451 14.7547C28.3312 15.0116 28.2645 15.263 28.149 15.4929C28.0335 15.7229 27.8719 15.9266 27.6741 16.0912C27.4763 16.2558 27.2467 16.3778 26.9996 16.4496L8.28959 21.4496C7.96311 21.5452 7.61608 21.5452 7.28959 21.4496C6.97756 21.3591 6.6945 21.1888 6.46829 20.9556C6.24209 20.7224 6.08055 20.4343 5.99959 20.1196L5.74959 19.1896L4.99959 16.3796L4.25959 13.6396L5.69959 13.2496L7.99959 16.3496L8.8096 17.4296L10.1196 17.0796L12.9196 16.3296L14.8596 15.8096L14.3396 13.8796L12.0796 5.51963L13.4796 5.14963ZM14.1596 2.99963C13.9953 2.95976 13.8239 2.95976 13.6596 2.99963L10.5696 3.82963C10.3303 3.90397 10.1276 4.06546 10.0016 4.28214C9.87569 4.49881 9.83571 4.75488 9.8896 4.99963L12.3896 14.3596L9.57959 15.1096L6.84959 11.4996C6.71977 11.3265 6.53731 11.2002 6.32959 11.1396C6.16531 11.0998 5.99388 11.0998 5.82959 11.1396L2.71959 11.9996C2.47493 12.0657 2.26449 12.2223 2.13083 12.4376C1.99717 12.653 1.95027 12.911 1.99959 13.1596L2.99959 16.8996L3.74959 19.6996L3.99959 20.6396C4.17518 21.2969 4.52092 21.8962 5.00196 22.3773C5.483 22.8583 6.08235 23.204 6.73959 23.3796C7.39499 23.553 8.0842 23.553 8.73959 23.3796L27.4396 18.3796C28.2656 18.1681 28.9977 17.6878 29.5205 17.0142C30.0433 16.3407 30.3271 15.5123 30.3271 14.6596C30.3271 13.807 30.0433 12.9786 29.5205 12.305C28.9977 11.6315 28.2656 11.1511 27.4396 10.9396C26.7315 10.7545 25.9877 10.7545 25.2796 10.9396L20.7696 12.1496L14.6996 3.40963C14.5728 3.21425 14.3818 3.06924 14.1596 2.99963Z" fill="white"/>
</g>
<defs>
<clipPath id="clip0_1159_19346">
<rect width="32" height="32" fill="white"/>
</clipPath>
</defs>
</svg>
