<svg width="16" height="20" viewBox="0 0 16 20" fill="none" xmlns="http://www.w3.org/2000/svg">
<mask id="path-1-inside-1_1156_19100" fill="white">
<path fill-rule="evenodd" clip-rule="evenodd" d="M15.4143 4.41422C15.7893 4.78929 16 5.298 16 5.82843V18C16 19.1046 15.1046 20 14 20H2C0.89543 20 0 19.1046 0 18V2C0 0.89543 0.89543 0 2 0H10.1716C10.702 0 11.2108 0.21071 11.5858 0.58579L15.4143 4.41422ZM15 5.82843L15 6L15 18C15 18.5523 14.5523 19 14 19H2C1.44771 19 1 18.5523 1 18V2C1 1.44772 1.44772 1 2 1H10H10.1716C10.4368 1 10.6912 1.10536 10.8787 1.29289L11 1.41423L14.5857 5L14.7071 5.12133C14.8947 5.30886 15 5.56322 15 5.82843Z"/>
<path d="M10.8787 1.29289C10.6912 1.10536 10.4368 1 10.1716 1H10V5C10 5.55228 10.4477 6 11 6H15L15 5.82843C15 5.56322 14.8947 5.30886 14.7071 5.12133L14.5857 5H11V1.41423L10.8787 1.29289Z"/>
</mask>
<path fill-rule="evenodd" clip-rule="evenodd" d="M15.4143 4.41422C15.7893 4.78929 16 5.298 16 5.82843V18C16 19.1046 15.1046 20 14 20H2C0.89543 20 0 19.1046 0 18V2C0 0.89543 0.89543 0 2 0H10.1716C10.702 0 11.2108 0.21071 11.5858 0.58579L15.4143 4.41422ZM15 5.82843L15 6L15 18C15 18.5523 14.5523 19 14 19H2C1.44771 19 1 18.5523 1 18V2C1 1.44772 1.44772 1 2 1H10H10.1716C10.4368 1 10.6912 1.10536 10.8787 1.29289L11 1.41423L14.5857 5L14.7071 5.12133C14.8947 5.30886 15 5.56322 15 5.82843Z" fill="#1A1918"/>
<path d="M10.8787 1.29289C10.6912 1.10536 10.4368 1 10.1716 1H10V5C10 5.55228 10.4477 6 11 6H15L15 5.82843C15 5.56322 14.8947 5.30886 14.7071 5.12133L14.5857 5H11V1.41423L10.8787 1.29289Z" fill="#1A1918"/>
<path d="M15 5.82843L14.5 5.82843L14.5 5.82854L15 5.82843ZM10.8787 1.29289L10.5251 1.64642L10.5251 1.64644L10.8787 1.29289ZM14.7071 5.12133L14.3535 5.47488L14.3536 5.47495L14.7071 5.12133ZM10.1716 1.5C10.3042 1.5 10.4314 1.5527 10.5251 1.64642L11.2322 0.939365C10.9509 0.658022 10.5693 0.5 10.1716 0.5V1.5ZM14.3536 5.47495C14.4473 5.56864 14.5 5.69576 14.5 5.82843H15.5C15.5 5.43068 15.342 5.04908 15.0605 4.76771L14.3536 5.47495ZM10 1.5H10.1716V0.5H10V1.5ZM14.5 5.82854L14.5 6.00011L15.5 5.99989L15.5 5.82832L14.5 5.82854ZM14.2322 5.35355L14.3535 5.47488L15.0606 4.76778L14.9393 4.64645L14.2322 5.35355ZM10.5251 1.64644L10.6464 1.76778L11.3536 1.06068L11.2322 0.939339L10.5251 1.64644ZM15.4143 4.41422L16.1214 3.70718L16.1214 3.70711L15.4143 4.41422ZM11.5858 0.58579L10.8786 1.29282L10.8787 1.2929L11.5858 0.58579ZM15 18L14 18V18H15ZM10 1H11V0H10V1ZM15 6L16 6L16 5H15V6ZM14.5857 5V6H16.9999L15.2928 4.2929L14.5857 5ZM11 5H10V6H11V5ZM11 1.41423L11.7071 0.707128L10 -1V1.41423H11ZM14.7071 5.12126C14.8946 5.3088 15 5.56319 15 5.82843H17C17 5.03281 16.6839 4.26978 16.1214 3.70718L14.7071 5.12126ZM15 5.82843V18H17V5.82843H15ZM15 18C15 18.5523 14.5523 19 14 19V21C15.6568 21 17 19.6569 17 18H15ZM14 19H2V21H14V19ZM2 19C1.4477 19 1 18.5523 1 18H-1C-1 19.6569 0.343155 21 2 21V19ZM1 18V2H-1V18H1ZM1 2C1 1.44771 1.44771 1 2 1V-1C0.343145 -1 -1 0.343145 -1 2H1ZM2 1H10.1716V-1H2V1ZM10.1716 1C10.4368 1 10.6912 1.10539 10.8786 1.29282L12.2929 -0.121241C11.7303 -0.683973 10.9671 -1 10.1716 -1V1ZM10.8787 1.2929L14.7072 5.12133L16.1214 3.70711L12.2929 -0.121323L10.8787 1.2929ZM14 18V20C15.1045 20 16 19.1046 16 18H14ZM14 18H2V20H14V18ZM2 18H0C0 19.1046 0.895432 20 2 20V18ZM2 18V2H0V18H2ZM2 2V0C0.895435 0 0 0.895435 0 2H2ZM2 2H10V0H2V2ZM9 1V5H11V1H9ZM14 6L14 18L16 18L16 6L14 6ZM11 7H15V5H11V7ZM14.5857 4H11V6H14.5857V4ZM10.2929 2.12133L13.8786 5.7071L15.2928 4.2929L11.7071 0.707128L10.2929 2.12133ZM12 5V1.41423H10V5H12ZM9 5C9 6.10457 9.89543 7 11 7V5L11 5H9Z" fill="#1A1918" mask="url(#path-1-inside-1_1156_19100)"/>
<path d="M7.75002 14.75C7.75002 14.8881 7.86196 15 8.00002 15C8.13809 15 8.25003 14.8881 8.25003 14.75V12.25H10.75C10.8881 12.25 11 12.138 11 12C11 11.8619 10.8881 11.75 10.75 11.75H8.25003V9.25C8.25003 9.11193 8.13809 9 8.00002 9C7.86196 9 7.75002 9.11193 7.75002 9.25V11.75H5.25C5.11193 11.75 5 11.8619 5 12C5 12.138 5.11193 12.25 5.25 12.25H7.75002V14.75Z" fill="#1A1918" stroke="#1A1918" stroke-width="0.3"/>
</svg>
