<svg width="24" height="24" viewBox="0 0 24 24" fill="none" xmlns="http://www.w3.org/2000/svg">
<path fill-rule="evenodd" clip-rule="evenodd" d="M2.26351 9.53885C2.09083 9.84105 2 10.1831 2 10.5311V18C2 19.1046 2.89543 20 4 20H20C21.1046 20 22 19.1046 22 18V10.5311C22 10.1831 21.9092 9.84105 21.7365 9.53885L18.5758 4.00772C18.2198 3.38457 17.5571 3 16.8394 3H7.16065C6.44293 3 5.78025 3.38457 5.42416 4.00772L2.26351 9.53885ZM17.7076 4.50386C17.5296 4.19229 17.1982 4 16.8394 4H7.16065C6.80179 4 6.47045 4.19229 6.2924 4.50386L3.15175 10H7.5C8.05229 10 8.4856 10.4568 8.64104 10.9868C9.06707 12.4393 10.4097 13.5 12 13.5C13.5903 13.5 14.9329 12.4393 15.359 10.9868C15.5144 10.4568 15.9477 10 16.5 10H20.8483L17.7076 4.50386ZM21 11H16.5018L16.5005 11.0005C16.4953 11.0027 16.4795 11.0106 16.4565 11.0317C16.4062 11.0778 16.3498 11.1616 16.3185 11.2682C15.771 13.1351 14.0462 14.5 12 14.5C9.95382 14.5 8.22902 13.1351 7.68146 11.2682C7.65018 11.1616 7.59378 11.0778 7.54349 11.0317C7.52046 11.0106 7.50472 11.0027 7.49955 11.0005L7.49824 11H3V18C3 18.5523 3.44772 19 4 19H20C20.5523 19 21 18.5523 21 18V11Z" fill="white"/>
</svg>
