<svg width="20" height="20" viewBox="0 0 20 20" fill="none" xmlns="http://www.w3.org/2000/svg">
<path fill-rule="evenodd" clip-rule="evenodd" d="M10 2.45127C9.4485 1.26567 8.3876 0 6.5625 0C4.87113 0 3.5 1.34315 3.5 3C3.5 3.76836 3.79487 4.46924 4.27981 5H2C0.89543 5 0 5.89543 0 7V9C0 10.1046 0.89543 11 2 11V18C2 19.1046 2.89543 20 4 20H16C17.1046 20 18 19.1046 18 18V11C19.1046 11 20 10.1046 20 9V7C20 5.89543 19.1046 5 18 5H15.7202C16.2051 4.46924 16.5 3.76836 16.5 3C16.5 1.34315 15.1289 0 13.4375 0C11.6124 0 10.5515 1.26567 10 2.45127ZM4.5 3C4.5 4.08523 5.40387 5 6.5625 5H9.5V4.28572C9.5 4.06474 9.3306 3.17633 8.8122 2.35534C8.3194 1.57496 7.6121 1 6.5625 1C5.40387 1 4.5 1.91477 4.5 3ZM10.5 6V10H18C18.5523 10 19 9.5523 19 9V7C19 6.44772 18.5523 6 18 6H10.5ZM9.5 6H2C1.44772 6 1 6.44772 1 7V9C1 9.5523 1.44772 10 2 10H9.5V6ZM15.5 3C15.5 4.08523 14.5961 5 13.4375 5H10.5V4.28572C10.5 4.06474 10.6694 3.17633 11.1878 2.35534C11.6806 1.57496 12.3879 1 13.4375 1C14.5961 1 15.5 1.91477 15.5 3ZM9.5 11H3V18C3 18.5523 3.44772 19 4 19H9.5V11ZM10.5 19H16C16.5523 19 17 18.5523 17 18V11H10.5V19Z" fill="white"/>
</svg>
