<svg width="24" height="24" viewBox="0 0 24 24" fill="none" xmlns="http://www.w3.org/2000/svg">
<path fill-rule="evenodd" clip-rule="evenodd" d="M16.4835 3.20764C18.0773 3.20764 19.6061 3.84008 20.7341 4.96612C21.8621 6.09217 22.4972 7.61979 22.5 9.21365C22.5 12.4477 21.3135 13.9912 16.011 18.1807L13.2876 20.2945C12.5299 20.8826 11.4701 20.8826 10.7124 20.2945L7.989 18.1807C2.6865 13.9912 1.5 12.4477 1.5 9.21365C1.50278 7.61979 2.13789 6.09217 3.2659 4.96612C4.39391 3.84008 5.92264 3.20764 7.5165 3.20764C9.14236 3.21536 10.7014 3.85554 11.8635 4.99264L12 5.12142L12.1365 4.99264C13.2986 3.85554 14.8576 3.21536 16.4835 3.20764ZM7.51413 4.20764C8.71502 4.21388 9.87239 4.63078 10.7978 5.38096L11.6415 6.16945C11.8432 6.35803 12.1566 6.35803 12.3584 6.16945L13.2015 5.38153C14.127 4.63099 15.2847 4.21389 16.4858 4.20764C17.8139 4.20827 19.0876 4.73552 20.0276 5.67385C20.9679 6.61253 21.4974 7.88591 21.5 9.21455C21.4999 10.6652 21.2459 11.6406 20.4363 12.7491C19.5692 13.9366 18.0545 15.2915 15.3944 17.3934L12.6745 19.5045C12.2776 19.8126 11.7224 19.8126 11.3255 19.5045L8.60557 17.3934C5.9455 15.2915 4.43081 13.9365 3.56365 12.7491C2.75411 11.6406 2.5001 10.6652 2.5 9.21455C2.50254 7.88591 3.03207 6.61253 3.97239 5.67385C4.91236 4.73552 6.18604 4.20827 7.51413 4.20764Z" fill="white"/>
</svg>
