<svg width="33" height="32" viewBox="0 0 33 32" fill="none" xmlns="http://www.w3.org/2000/svg">
<path fill-rule="evenodd" clip-rule="evenodd" d="M16.4998 11.3334C16.4998 12.8062 15.306 14.0001 13.8332 14.0001C12.3604 14.0001 11.1665 12.8062 11.1665 11.3334C11.1665 9.86065 12.3604 8.66675 13.8332 8.66675C15.306 8.66675 16.4998 9.86065 16.4998 11.3334ZM15.1665 11.3334C15.1665 12.0698 14.5696 12.6667 13.8332 12.6667C13.0968 12.6667 12.4998 12.0698 12.4998 11.3334C12.4998 10.597 13.0968 10.0001 13.8332 10.0001C14.5696 10.0001 15.1665 10.597 15.1665 11.3334Z" fill="#1A1918"/>
<path fill-rule="evenodd" clip-rule="evenodd" d="M28.5 6.66667C28.5 5.19391 27.3061 4 25.8333 4H7.16667C5.69391 4 4.5 5.19391 4.5 6.66667V25.3333C4.5 26.8061 5.69391 28 7.16667 28H25.8333C27.3061 28 28.5 26.8061 28.5 25.3333V6.66667ZM27.1667 6.66667C27.1667 5.93029 26.5697 5.33333 25.8333 5.33333H7.16667C6.43029 5.33333 5.83333 5.93029 5.83333 6.66667V18.8889L8.96345 16.1065C9.4618 15.6636 10.2108 15.6568 10.717 16.0908L14.5 19.3333L20.8905 12.9428C21.4112 12.4221 22.2555 12.4221 22.7761 12.9428L27.1667 17.3333V6.66667ZM7.16667 26.6667C6.43029 26.6667 5.83333 26.0697 5.83333 25.3333V20.6728L9.84928 17.1031L13.6323 20.3457C14.1612 20.7991 14.9501 20.7688 15.4428 20.2761L21.8333 13.8856L27.1667 19.2189V25.3333C27.1667 26.0697 26.5697 26.6667 25.8333 26.6667H7.16667Z" fill="#1A1918"/>
</svg>
