<svg width="18" height="18" viewBox="0 0 18 18" fill="none" xmlns="http://www.w3.org/2000/svg">
<path fill-rule="evenodd" clip-rule="evenodd" d="M18 2C18 0.89543 17.1046 0 16 0H2C0.89543 0 0 0.89543 0 2V16C0 17.1046 0.89543 18 2 18H16C17.1046 18 18 17.1046 18 16V2ZM17 2C17 1.44772 16.5523 1 16 1H2C1.44772 1 1 1.44772 1 2V11.1667L3.34759 9.0799C3.72135 8.7477 4.28307 8.7426 4.66275 9.0681L7.5 11.5L12.2929 6.70711C12.6834 6.31658 13.3166 6.31658 13.7071 6.70711L17 10V2ZM2 17C1.44772 17 1 16.5523 1 16V12.5046L4.01196 9.8273L6.84921 12.2593C7.2459 12.5993 7.8376 12.5766 8.2071 12.2071L13 7.4142L17 11.4142V16C17 16.5523 16.5523 17 16 17H2Z" fill="#1A1918"/>
<path fill-rule="evenodd" clip-rule="evenodd" d="M9 5.5C9 6.60457 8.1046 7.5 7 7.5C5.89543 7.5 5 6.60457 5 5.5C5 4.39543 5.89543 3.5 7 3.5C8.1046 3.5 9 4.39543 9 5.5ZM8 5.5C8 6.05229 7.5523 6.5 7 6.5C6.44772 6.5 6 6.05229 6 5.5C6 4.94772 6.44772 4.5 7 4.5C7.5523 4.5 8 4.94772 8 5.5Z" fill="#1A1918"/>
</svg>
