<svg width="24" height="24" viewBox="0 0 24 24" fill="none" xmlns="http://www.w3.org/2000/svg">
<path fill-rule="evenodd" clip-rule="evenodd" d="M22.1343 10.1146C22.4945 10.4136 22.283 10.9993 21.8149 10.9993H19.9998V19.9993C19.9998 20.5515 19.552 20.9993 18.9998 20.9993H13.9998C13.4475 20.9993 12.9998 20.5515 12.9998 19.9993V13.9993H10.9998V19.9993C10.9998 20.5515 10.552 20.9993 9.99976 20.9993H4.99976C4.44748 20.9993 3.99976 20.5515 3.99976 19.9993V10.9993H2.18459C1.7165 10.9993 1.50505 10.4136 1.86517 10.1146L10.7221 2.76014C11.4628 2.14506 12.5367 2.14506 13.2774 2.76014L22.1343 10.1146ZM4.99976 10.9993C4.99976 10.447 4.55205 9.99922 3.99976 9.99922H3.56942L11.3609 3.52948C11.7313 3.22195 12.2682 3.22195 12.6386 3.52948L20.4301 9.99922H19.9998C19.4475 9.99922 18.9998 10.447 18.9998 10.9993V19.9993H13.9998V13.9993C13.9998 13.447 13.552 12.9993 12.9998 12.9993H10.9998C10.4475 12.9993 9.99976 13.447 9.99976 13.9993V19.9993H4.99976V10.9993Z" fill="white"/>
</svg>
