<svg width="89" height="40" viewBox="0 0 89 40" fill="none" xmlns="http://www.w3.org/2000/svg">
<path d="M10.2842 1.31754C11.3472 1.31754 12.3644 1.95186 12.3644 3.39767C12.3644 4.84347 11.3472 5.52351 10.2842 5.52351C9.22131 5.52351 8.2041 4.84347 8.2041 3.39767C8.2041 1.95186 9.22131 1.31754 10.2842 1.31754ZM10.2842 2.37475C9.77563 2.37475 9.43275 2.7062 9.43275 3.40338C9.43275 4.10628 9.77563 4.4663 10.2842 4.4663C10.7928 4.4663 11.1357 4.10628 11.1357 3.40338C11.1357 2.7062 10.7928 2.37475 10.2842 2.37475ZM14.9415 1.31754C15.4672 1.31754 16.0158 1.46612 16.313 1.70614L15.793 2.61476C15.5758 2.45475 15.2615 2.37475 15.01 2.37475C14.4843 2.37475 14.0728 2.73477 14.0728 3.44338C14.0728 4.08342 14.41 4.4663 14.9986 4.4663C15.3129 4.4663 15.5758 4.35772 15.833 4.152L16.3816 4.9749C16.1015 5.26064 15.5587 5.52351 14.8729 5.52351C13.6557 5.52351 12.8499 4.69489 12.8499 3.43767C12.8499 2.15759 13.6842 1.31754 14.9415 1.31754ZM18.6387 5.52351C17.6958 5.52351 16.9243 5.10634 16.9243 3.96341V1.4204H18.0672V3.91198C18.0672 4.28343 18.2615 4.47773 18.6387 4.47773C19.0044 4.47773 19.2101 4.28343 19.2101 3.91198V1.4204H20.3531V3.96341C20.3531 5.10634 19.5816 5.52351 18.6387 5.52351ZM21.1516 5.42064V1.4204H22.2945V4.39201H24.066V5.42064H21.1516ZM26.5738 1.31754C27.6368 1.31754 28.654 1.95186 28.654 3.39767C28.654 4.84347 27.6368 5.52351 26.5738 5.52351C25.5109 5.52351 24.4937 4.84347 24.4937 3.39767C24.4937 1.95186 25.5109 1.31754 26.5738 1.31754ZM26.5738 2.37475C26.0652 2.37475 25.7224 2.7062 25.7224 3.40338C25.7224 4.10628 26.0652 4.4663 26.5738 4.4663C27.0824 4.4663 27.4253 4.10628 27.4253 3.40338C27.4253 2.7062 27.0824 2.37475 26.5738 2.37475ZM30.7961 1.31754C31.3905 1.31754 31.9219 1.51755 32.2076 1.73471L31.7276 2.58047C31.4705 2.38618 31.0819 2.24903 30.7961 2.24903C30.539 2.24903 30.4132 2.36332 30.4132 2.5119C30.4132 2.72334 30.6876 2.80906 31.0304 2.91192C31.5733 3.08336 32.2819 3.30052 32.2819 4.16343C32.2819 5.02062 31.5448 5.48922 30.5904 5.48922C30.0818 5.48922 29.5218 5.35778 29.116 5.11777L29.4532 4.16914C29.7961 4.34058 30.1961 4.48916 30.619 4.48916C30.899 4.48916 31.0419 4.37487 31.0419 4.20914C31.0419 4.01485 30.8247 3.94056 30.5047 3.85484C29.8875 3.6834 29.196 3.49481 29.196 2.5919C29.196 1.78043 29.8589 1.31754 30.7961 1.31754Z" fill="#F15723"/>
<path d="M9.60101 0.841321H10.4741L10.9186 0H9.93437L9.60101 0.841321Z" fill="#F15723"/>
<path fill-rule="evenodd" clip-rule="evenodd" d="M38.039 1.42122C39.3363 1.42122 40.2563 2.17555 40.2563 3.4042C40.2563 4.64428 39.3363 5.42146 38.039 5.42146H36.6504V1.42122H38.039ZM37.8162 2.46129H38.1019C38.6677 2.46129 39.0277 2.68987 39.0277 3.4042C39.0277 4.11853 38.6677 4.39855 38.1019 4.39855H37.8162V2.46129Z" fill="#F15723"/>
<path fill-rule="evenodd" clip-rule="evenodd" d="M42.8206 1.31836C43.8835 1.31836 44.9007 1.95268 44.9007 3.39849C44.9007 4.84429 43.8835 5.52433 42.8206 5.52433C41.7577 5.52433 40.7405 4.84429 40.7405 3.39849C40.7405 1.95268 41.7577 1.31836 42.8206 1.31836ZM41.9691 3.4042C41.9691 2.70702 42.312 2.37557 42.8206 2.37557C43.3292 2.37557 43.6721 2.70702 43.6721 3.4042C43.6721 4.1071 43.3292 4.46712 42.8206 4.46712C42.312 4.46712 41.9691 4.1071 41.9691 3.4042Z" fill="#F15723"/>
<path d="M65.4836 29.8239C65.4836 32.7617 65.4836 35.6564 65.4836 38.5782C63.2353 38.5782 61.0332 38.5782 58.7755 38.5782C58.7755 38.412 58.7755 38.2458 58.7755 38.0796C58.7755 33.0286 58.7607 27.9775 58.7872 22.9266C58.7929 21.8418 57.9248 20.783 56.7212 20.8559C56.1095 20.893 55.4936 20.8624 54.8466 20.8624C54.8466 25.0851 54.8466 29.2699 54.8466 33.4898C52.6157 33.4898 50.4181 33.4898 48.2012 33.4898C48.2012 22.8132 48.2012 12.1417 48.2012 1.4353C49.9687 1.35367 51.7498 1.22781 53.2144 2.54013C54.3048 3.51712 54.8403 4.74162 54.835 6.21655C54.8228 9.57427 54.8311 12.9321 54.8311 16.2898C54.8311 16.446 54.8311 16.6021 54.8311 16.8229C55.0623 16.8229 55.2706 16.8229 55.4788 16.8229C56.3828 16.8229 57.2868 16.8225 58.1908 16.823C61.5217 16.8247 64.4128 19.0993 65.2128 22.2855C65.3846 22.9698 65.4578 23.6928 65.4718 24.4001C65.5074 26.1931 65.4836 27.9872 65.4836 29.8239Z" fill="#F15723"/>
<path d="M44.9069 27.6708C44.9135 28.6555 44.9291 29.5917 44.5771 30.4983C43.8811 32.2902 42.1283 33.5233 40.2073 33.5239C34.4251 33.5257 28.6429 33.5253 22.8608 33.5243C20.524 33.5238 18.5766 31.8643 18.2115 29.5582C18.1649 29.2642 18.1342 28.9643 18.1335 28.667C18.1275 26.0987 18.1432 23.5304 18.1261 20.9622C18.1111 18.7222 19.6299 16.6817 22.0859 16.2374C22.3652 16.1869 22.6579 16.2003 22.9443 16.2002C28.6548 16.1983 34.3653 16.2213 40.0756 16.1876C42.3461 16.1742 44.2976 17.7168 44.7625 19.8149C44.8391 20.1603 44.8986 20.5177 44.9005 20.8699C44.9128 23.1225 44.9068 25.3751 44.9069 27.6708ZM36.4809 29.4799C37.552 29.3531 38.2379 28.4108 38.2116 27.4405C38.1647 25.7067 38.165 23.9697 38.2112 22.2359C38.2379 21.2304 37.4821 20.2084 36.1979 20.2028C33.0719 20.1891 29.9458 20.1894 26.8198 20.2026C25.5413 20.2081 24.7876 21.2457 24.8213 22.2444C24.8809 24.0062 24.8746 25.7725 24.8248 27.5348C24.793 28.6592 25.8243 29.5027 26.8089 29.493C30.0064 29.4612 33.2043 29.4809 36.4809 29.4799Z" fill="#F15723"/>
<path d="M10.4572 39.9925C8.45096 39.9932 6.48522 40.0185 4.52084 39.9781C2.53743 39.9373 0.578515 38.1905 0.319733 36.2194C0.197829 35.2908 0.223206 34.343 0.179688 33.3549C0.905379 33.3549 1.56063 33.3549 2.21588 33.3549C2.87533 33.3549 3.53479 33.3549 4.21008 33.3549C4.25431 33.7748 4.25178 34.1907 4.34819 34.5823C4.61927 35.6833 5.61871 36.0522 6.34031 35.9842C7.44112 35.8805 8.14027 35.0967 8.14555 34.0663C8.16644 29.9944 8.1929 25.9226 8.20218 21.8507C8.21192 17.5754 8.20436 13.3001 8.20436 9.02485C8.20436 8.8557 8.20436 8.68655 8.20436 8.49414C10.4294 8.49414 12.6174 8.49414 14.8571 8.49414C14.8571 8.65196 14.8571 8.80438 14.8571 8.9568C14.8571 17.6939 14.8459 26.431 14.8646 35.168C14.8696 37.481 13.3397 39.5154 10.9265 39.9607C10.7868 39.9865 10.6411 39.9798 10.4572 39.9925Z" fill="#F15723"/>
<path d="M71.4586 16.8829C72.2506 16.9938 72.9685 17.189 73.6099 17.6285C77.2132 20.0979 80.8206 22.5615 84.4272 25.0262C84.5191 25.089 84.6185 25.1409 84.7639 25.2273C84.7639 22.4151 84.7639 19.644 84.7639 16.8477C86.1198 16.8477 87.4334 16.8477 88.8001 16.8477C88.8067 16.9958 88.8194 17.1472 88.8194 17.2986C88.8205 21.962 88.8211 26.6254 88.8197 31.2888C88.8193 32.6567 87.9409 33.527 86.5632 33.5224C86.106 33.5209 85.6476 33.514 85.1919 33.4809C84.0856 33.4007 83.2988 32.6675 82.4425 32.0911C79.0666 29.819 75.6992 27.5341 72.3284 25.2544C72.2843 25.2245 72.237 25.1991 72.1302 25.1351C72.1302 27.9447 72.1302 30.7007 72.1302 33.4903C70.7576 33.4903 69.4347 33.4903 68.0928 33.4903C68.0928 27.9495 68.0928 22.4157 68.0928 16.8707C69.2015 16.8707 70.3118 16.8707 71.4586 16.8829Z" fill="#F15723"/>
<path d="M28.7375 10.2643C28.9423 10.2371 29.1109 10.1997 29.2797 10.1992C30.7559 10.1946 32.2322 10.2067 33.7083 10.1935C35.0004 10.1819 35.7441 11.0763 35.8871 12.368C35.9164 12.9277 35.8871 14.2091 35.8871 14.2091H27.0469C27.0469 14.2091 27.0469 12.4111 27.2561 11.5636C27.3956 10.8459 27.9703 10.4251 28.7375 10.2643Z" fill="#F15723"/>
</svg>
