<svg width="20" height="21" viewBox="0 0 20 21" fill="none" xmlns="http://www.w3.org/2000/svg">
<path fill-rule="evenodd" clip-rule="evenodd" d="M12.5 8.83325C12.5 10.214 11.3807 11.3333 9.99999 11.3333C8.61932 11.3333 7.5 10.214 7.5 8.83325C7.5 7.45254 8.61932 6.33325 9.99999 6.33325C11.3807 6.33325 12.5 7.45254 12.5 8.83325ZM11.6667 8.83325C11.6667 9.75373 10.9205 10.4999 9.99999 10.4999C9.07949 10.4999 8.33333 9.75373 8.33333 8.83325C8.33333 7.91278 9.07949 7.16659 9.99999 7.16659C10.9205 7.16659 11.6667 7.91278 11.6667 8.83325Z" fill="#4D4A49"/>
<path fill-rule="evenodd" clip-rule="evenodd" d="M12.5 8.83325C12.5 10.214 11.3807 11.3333 9.99999 11.3333C8.61932 11.3333 7.5 10.214 7.5 8.83325C7.5 7.45254 8.61932 6.33325 9.99999 6.33325C11.3807 6.33325 12.5 7.45254 12.5 8.83325ZM11.6667 8.83325C11.6667 9.75373 10.9205 10.4999 9.99999 10.4999C9.07949 10.4999 8.33333 9.75373 8.33333 8.83325C8.33333 7.91278 9.07949 7.16659 9.99999 7.16659C10.9205 7.16659 11.6667 7.91278 11.6667 8.83325Z" fill="black" fill-opacity="0.2"/>
<path fill-rule="evenodd" clip-rule="evenodd" d="M12.5 8.83325C12.5 10.214 11.3807 11.3333 9.99999 11.3333C8.61932 11.3333 7.5 10.214 7.5 8.83325C7.5 7.45254 8.61932 6.33325 9.99999 6.33325C11.3807 6.33325 12.5 7.45254 12.5 8.83325ZM11.6667 8.83325C11.6667 9.75373 10.9205 10.4999 9.99999 10.4999C9.07949 10.4999 8.33333 9.75373 8.33333 8.83325C8.33333 7.91278 9.07949 7.16659 9.99999 7.16659C10.9205 7.16659 11.6667 7.91278 11.6667 8.83325Z" fill="black" fill-opacity="0.2"/>
<path fill-rule="evenodd" clip-rule="evenodd" d="M11.0342 17.0415C12.7101 15.3982 15.8334 11.9212 15.8334 8.83333C15.8334 5.59167 13.2217 3 10.0001 3C6.77842 3 4.16675 5.59167 4.16675 8.83333C4.16675 11.9212 7.29011 15.3982 8.96591 17.0415C9.54808 17.6124 10.4521 17.6124 11.0342 17.0415ZM13.3725 13.0115C14.3346 11.5926 15.0001 10.1233 15.0001 8.83333C15.0001 6.05377 12.7634 3.83333 10.0001 3.83333C7.2368 3.83333 5.00008 6.05377 5.00008 8.83333C5.00008 10.1233 5.66562 11.5926 6.62766 13.0115C7.57448 14.408 8.73133 15.6443 9.54933 16.4465C9.8075 16.6997 10.1927 16.6997 10.4508 16.4465C11.2688 15.6443 12.4257 14.408 13.3725 13.0115Z" fill="#4D4A49"/>
<path fill-rule="evenodd" clip-rule="evenodd" d="M11.0342 17.0415C12.7101 15.3982 15.8334 11.9212 15.8334 8.83333C15.8334 5.59167 13.2217 3 10.0001 3C6.77842 3 4.16675 5.59167 4.16675 8.83333C4.16675 11.9212 7.29011 15.3982 8.96591 17.0415C9.54808 17.6124 10.4521 17.6124 11.0342 17.0415ZM13.3725 13.0115C14.3346 11.5926 15.0001 10.1233 15.0001 8.83333C15.0001 6.05377 12.7634 3.83333 10.0001 3.83333C7.2368 3.83333 5.00008 6.05377 5.00008 8.83333C5.00008 10.1233 5.66562 11.5926 6.62766 13.0115C7.57448 14.408 8.73133 15.6443 9.54933 16.4465C9.8075 16.6997 10.1927 16.6997 10.4508 16.4465C11.2688 15.6443 12.4257 14.408 13.3725 13.0115Z" fill="black" fill-opacity="0.2"/>
<path fill-rule="evenodd" clip-rule="evenodd" d="M11.0342 17.0415C12.7101 15.3982 15.8334 11.9212 15.8334 8.83333C15.8334 5.59167 13.2217 3 10.0001 3C6.77842 3 4.16675 5.59167 4.16675 8.83333C4.16675 11.9212 7.29011 15.3982 8.96591 17.0415C9.54808 17.6124 10.4521 17.6124 11.0342 17.0415ZM13.3725 13.0115C14.3346 11.5926 15.0001 10.1233 15.0001 8.83333C15.0001 6.05377 12.7634 3.83333 10.0001 3.83333C7.2368 3.83333 5.00008 6.05377 5.00008 8.83333C5.00008 10.1233 5.66562 11.5926 6.62766 13.0115C7.57448 14.408 8.73133 15.6443 9.54933 16.4465C9.8075 16.6997 10.1927 16.6997 10.4508 16.4465C11.2688 15.6443 12.4257 14.408 13.3725 13.0115Z" fill="black" fill-opacity="0.2"/>
</svg>
