<svg width="21" height="21" viewBox="0 0 21 21" fill="none" xmlns="http://www.w3.org/2000/svg">
<path fill-rule="evenodd" clip-rule="evenodd" d="M0.501953 8.5C0.501953 4.08172 4.08368 0.5 8.502 0.5C12.9202 0.5 16.502 4.08172 16.502 8.5C16.502 10.529 15.746 12.3823 14.5014 13.7923L20.002 19.2929C20.1972 19.4882 20.1972 19.8047 20.002 20C19.8067 20.1953 19.4901 20.1953 19.2948 20L13.7943 14.4994C12.3843 15.7441 10.531 16.5 8.502 16.5C4.08368 16.5 0.501953 12.9183 0.501953 8.5ZM8.502 1.5C4.63596 1.5 1.50195 4.63401 1.50195 8.5C1.50195 12.366 4.63596 15.5 8.502 15.5C10.4351 15.5 12.1844 14.717 13.4517 13.4497C14.719 12.1825 15.502 10.4331 15.502 8.5C15.502 4.63401 12.3679 1.5 8.502 1.5Z" fill="white" stroke="white" stroke-width="0.4"/>
</svg>
