<svg width="22" height="17" viewBox="0 0 22 17" fill="none" xmlns="http://www.w3.org/2000/svg">
<path d="M1 1.5C1 1.22386 1.22386 1 1.5 1H15.5C15.7761 1 16 1.22386 16 1.5C16 1.77614 15.7761 2 15.5 2H1.5C1.22386 2 1 1.77614 1 1.5Z" fill="#163F23" stroke="#163F23" stroke-width="0.4"/>
<path d="M1.50012 5.5C1.22398 5.5 1.00012 5.7239 1.00012 6C1.00012 6.2761 1.22398 6.5 1.50012 6.5H15.5001C15.7762 6.5 16.0001 6.2761 16.0001 6C16.0001 5.7239 15.7762 5.5 15.5001 5.5H1.50012Z" fill="#163F23" stroke="#163F23" stroke-width="0.4"/>
<path d="M1.00012 10.5C1.00012 10.2239 1.22398 10 1.50012 10H12.5001C12.7762 10 13.0001 10.2239 13.0001 10.5C13.0001 10.7761 12.7762 11 12.5001 11H1.50012C1.22398 11 1.00012 10.7761 1.00012 10.5Z" fill="#163F23" stroke="#163F23" stroke-width="0.4"/>
<path d="M15.0072 15.813C15.0774 16.3261 15.6535 16.6267 16.1222 16.3588L20.8605 13.6512C21.3644 13.3633 21.3644 12.6367 20.8605 12.3488L16.1222 9.64118C15.6222 9.35548 15.0001 9.71648 15.0001 10.2924V15.7076C15.0001 15.7436 15.0025 15.7788 15.0072 15.813Z" fill="#163F23" stroke="#163F23" stroke-width="0.4"/>
</svg>
