<svg width="21" height="20" viewBox="0 0 21 20" fill="none" xmlns="http://www.w3.org/2000/svg">
<mask id="path-1-inside-1_1666_21451" fill="white">
<path d="M2 2C0.89543 2 0 2.89543 0 4V13C0 14.1046 0.89543 15 2 15H10V19H6C5.72386 19 5.5 19.2239 5.5 19.5C5.5 19.7761 5.72386 20 6 20H15C15.2761 20 15.5 19.7761 15.5 19.5C15.5 19.2239 15.2761 19 15 19H11V15H19C20.1046 15 21 14.1046 21 13V11.5C21 11.2239 20.7761 11 20.5 11V11C20.2239 11 20 11.2239 20 11.5V13C20 13.5523 19.5523 14 19 14H2C1.44772 14 1 13.5523 1 13V4C1 3.44772 1.44772 3 2 3H7C7.27614 3 7.5 2.77614 7.5 2.5V2.5C7.5 2.22386 7.27614 2 7 2H2Z"/>
</mask>
<path d="M2 2C0.89543 2 0 2.89543 0 4V13C0 14.1046 0.89543 15 2 15H10V19H6C5.72386 19 5.5 19.2239 5.5 19.5C5.5 19.7761 5.72386 20 6 20H15C15.2761 20 15.5 19.7761 15.5 19.5C15.5 19.2239 15.2761 19 15 19H11V15H19C20.1046 15 21 14.1046 21 13V11.5C21 11.2239 20.7761 11 20.5 11V11C20.2239 11 20 11.2239 20 11.5V13C20 13.5523 19.5523 14 19 14H2C1.44772 14 1 13.5523 1 13V4C1 3.44772 1.44772 3 2 3H7C7.27614 3 7.5 2.77614 7.5 2.5V2.5C7.5 2.22386 7.27614 2 7 2H2Z" fill="white"/>
<path d="M10 15H11V14H10V15ZM10 19V20H11V19H10ZM11 19H10V20H11V19ZM11 15V14H10V15H11ZM2 2V1C0.343145 1 -1 2.34315 -1 4H0H1C1 3.44771 1.44771 3 2 3V2ZM0 4H-1V13H0H1V4H0ZM0 13H-1C-1 14.6569 0.343155 16 2 16V15V14C1.4477 14 1 13.5523 1 13H0ZM2 15V16H10V15V14H2V15ZM10 15H9V19H10H11V15H10ZM10 19V18H6V19V20H10V19ZM6 19V18C5.17152 18 4.5 18.6717 4.5 19.5H5.5H6.5C6.5 19.7761 6.2762 20 6 20V19ZM5.5 19.5H4.5C4.5 20.3283 5.17152 21 6 21V20V19C6.2762 19 6.5 19.2239 6.5 19.5H5.5ZM6 20V21H15V20V19H6V20ZM15 20V21C15.8284 21 16.5 20.3284 16.5 19.5H15.5H14.5C14.5 19.2238 14.7238 19 15 19V20ZM15.5 19.5H16.5C16.5 18.6716 15.8284 18 15 18V19V20C14.7238 20 14.5 19.7762 14.5 19.5H15.5ZM15 19V18H11V19V20H15V19ZM11 19H12V15H11H10V19H11ZM11 15V16H19V15V14H11V15ZM19 15V16C20.6569 16 22 14.6569 22 13H21H20C20 13.5523 19.5523 14 19 14V15ZM2 3V2C0.895435 2 0 2.89544 0 4H1H2V3ZM1 4H0V13H1H2V4H1ZM1 13H0C0 14.1046 0.895448 15 2 15V14V13H1ZM2 14V15H19V14V13H2V14ZM19 14V15C20.1046 15 21 14.1046 21 13H20H19V14ZM7 2V1H2V2V3H7V2ZM7 3V2H2V3V4H7V3ZM20 13H21V11.5H20H19V13H20ZM21 13H22V11.5H21H20V13H21ZM21 11.5H22C22 10.6716 21.3284 10 20.5 10V11V12C20.2239 12 20 11.7761 20 11.5H21ZM20 11.5H21C21 11.7761 20.7761 12 20.5 12V11V10C19.6716 10 19 10.6716 19 11.5H20ZM7 3V4C7.82843 4 8.5 3.32843 8.5 2.5H7.5H6.5C6.5 2.22386 6.72386 2 7 2V3ZM7 2V3C6.72386 3 6.5 2.77614 6.5 2.5H7.5H8.5C8.5 1.67157 7.82843 1 7 1V2Z" fill="white" mask="url(#path-1-inside-1_1666_21451)"/>
<path d="M7.5 5C7.22386 5 7 5.22386 7 5.5C7 5.77614 7.22386 6 7.5 6V5ZM10.1471 5.5L10.6125 5.31746L10.4881 5H10.1471V5.5ZM11.9118 10L11.4463 10.1825C11.5214 10.374 11.7061 10.5 11.9118 10.5C12.1175 10.5 12.3022 10.374 12.3773 10.1825L11.9118 10ZM15.4412 1L15.9067 0.817456C15.8316 0.625965 15.6469 0.5 15.4412 0.5C15.2355 0.5 15.0508 0.625965 14.9757 0.817456L15.4412 1ZM17.2059 5.5L16.7404 5.68254L16.8649 6H17.2059V5.5ZM20.5 6C20.7761 6 21 5.77614 21 5.5C21 5.22386 20.7761 5 20.5 5V6ZM7.5 5.5V6H10.1471V5.5V5H7.5V5.5ZM10.1471 5.5L9.68157 5.68254L11.4463 10.1825L11.9118 10L12.3773 9.81746L10.6125 5.31746L10.1471 5.5ZM11.9118 10L12.3773 10.1825L15.9067 1.18254L15.4412 1L14.9757 0.817456L11.4463 9.81746L11.9118 10ZM15.4412 1L14.9757 1.18254L16.7404 5.68254L17.2059 5.5L17.6714 5.31746L15.9067 0.817456L15.4412 1ZM17.2059 5.5V6H20.5V5.5V5H17.2059V5.5Z" fill="white"/>
</svg>
