<svg width="21" height="20" viewBox="0 0 21 20" fill="none" xmlns="http://www.w3.org/2000/svg">
<path d="M2.5 1V12.25C2.5 12.8467 2.73705 13.419 3.15901 13.841C3.58097 14.2629 4.15326 14.5 4.75 14.5H7M2.5 1H1M2.5 1H19M7 14.5H14.5M7 14.5L6 17.5M19 1H20.5M19 1V12.25C19 12.8467 18.7629 13.419 18.341 13.841C17.919 14.2629 17.3467 14.5 16.75 14.5H14.5M14.5 14.5L15.5 17.5M6 17.5H15.5M6 17.5L5.5 19M15.5 17.5L16 19M6.25 10L9.25 7L11.398 9.148C12.4072 7.69929 13.7222 6.48982 15.25 5.605" stroke="white" stroke-linecap="round" stroke-linejoin="round"/>
</svg>
