<svg width="24" height="24" viewBox="0 0 24 24" fill="none" xmlns="http://www.w3.org/2000/svg">
<path d="M12 4C12 4.27615 11.7761 4.5 11.5 4.5H5C4.72386 4.5 4.5 4.72386 4.5 5V19C4.5 19.2761 4.72386 19.5 5 19.5H11.5C11.7761 19.5 12 19.7238 12 20C12 20.2761 11.7761 20.5 11.5 20.5H5C4.17157 20.5 3.5 19.8284 3.5 19V5C3.5 4.17158 4.17157 3.5 5 3.5H11.5C11.7761 3.5 12 3.72386 12 4Z" fill="white"/>
<path d="M15.0001 16.2928L18.7929 12.5H8.5C8.22386 12.5 8 12.2761 8 12C8 11.7238 8.22386 11.5 8.5 11.5H18.7929L15 7.70707C14.8048 7.51181 14.8048 7.19523 15 6.99997C15.1953 6.8047 15.5119 6.8047 15.7071 6.99997L20.3535 11.6464C20.4473 11.7402 20.5 11.8674 20.5 12C20.5 12.1326 20.4473 12.2598 20.3535 12.3535L15.7072 16.9999C15.5119 17.1952 15.1953 17.1952 15.0001 16.9999C14.8048 16.8047 14.8048 16.4881 15.0001 16.2928Z" fill="white"/>
</svg>
