<svg width="24" height="24" viewBox="0 0 24 24" fill="none" xmlns="http://www.w3.org/2000/svg">
<path fill-rule="evenodd" clip-rule="evenodd" d="M0 3C0 2.72386 0.223857 2.5 0.5 2.5H3.1385C3.34295 2.5 3.52681 2.62448 3.60274 2.8143L4.07702 4H21.523C22.2304 4 22.7142 4.71453 22.4514 5.37139L19.5029 12.7428C19.1992 13.5021 18.4637 14 17.6459 14H7.17085L5.83428 16.5H19.5C19.7761 16.5 20 16.7239 20 17C20 17.2761 19.7761 17.5 19.5 17.5H5C4.82428 17.5 4.66146 17.4078 4.57113 17.257C4.48079 17.1063 4.47621 16.9192 4.55906 16.7643L6.58781 12.9696L2.79998 3.5H0.5C0.223858 3.5 0 3.27614 0 3ZM4.47703 5L7.67703 13H17.6459C18.0548 13 18.4226 12.751 18.5744 12.3714L21.523 5H4.47703Z" fill="white"/>
<path d="M6.5 20.25C6.5 20.9404 5.94036 21.5 5.25 21.5C4.55964 21.5 4 20.9404 4 20.25C4 19.5596 4.55964 19 5.25 19C5.94036 19 6.5 19.5596 6.5 20.25Z" fill="white"/>
<path d="M18.75 21.5C19.4404 21.5 20 20.9404 20 20.25C20 19.5596 19.4404 19 18.75 19C18.0596 19 17.5 19.5596 17.5 20.25C17.5 20.9404 18.0596 21.5 18.75 21.5Z" fill="white"/>
</svg>
