<svg width="24" height="24" viewBox="0 0 24 24" fill="none" xmlns="http://www.w3.org/2000/svg">
<path fill-rule="evenodd" clip-rule="evenodd" d="M19.1212 6H17.0001C17.0001 3.23858 14.7615 1 12.0001 1C9.23865 1 7.00008 3.23858 7.00008 6H4.87898C3.82286 6 2.94876 6.82118 2.88288 7.87525L2.13288 19.8752C2.06092 21.0266 2.97534 22 4.12898 22H19.8712C21.0248 22 21.9392 21.0266 21.8673 19.8752L21.1173 7.87524C21.0514 6.82117 20.1773 6 19.1212 6ZM7.00008 7H4.87898C4.35092 7 3.91387 7.41059 3.88093 7.93763L3.13093 19.9376C3.09495 20.5133 3.55216 21 4.12898 21H19.8712C20.448 21 20.9052 20.5133 20.8692 19.9376L20.1192 7.93762C20.0863 7.41059 19.6492 7 19.1212 7H17.0001V11.5C17.0001 11.7761 16.7762 12 16.5001 12C16.2239 12 16.0001 11.7761 16.0001 11.5V7H8.00008V11.5C8.00008 11.7761 7.77622 12 7.50008 12C7.22394 12 7.00008 11.7761 7.00008 11.5V7ZM12.0001 2C14.2092 2 16.0001 3.79086 16.0001 6H8.00008C8.00008 3.79086 9.79094 2 12.0001 2Z" fill="white"/>
</svg>
