<svg width="15" height="14" viewBox="0 0 15 14" fill="none" xmlns="http://www.w3.org/2000/svg">
<path fill-rule="evenodd" clip-rule="evenodd" d="M7.49992 13.6663C11.1818 13.6663 14.1666 10.6815 14.1666 6.99967C14.1666 3.31777 11.1818 0.333008 7.49992 0.333008C3.81802 0.333008 0.833252 3.31777 0.833252 6.99967C0.833252 10.6815 3.81802 13.6663 7.49992 13.6663ZM7.49992 12.9997C10.8137 12.9997 13.4999 10.3134 13.4999 6.99967C13.4999 3.68597 10.8137 0.999674 7.49992 0.999674C4.18621 0.999674 1.49992 3.68597 1.49992 6.99967C1.49992 10.3134 4.18621 12.9997 7.49992 12.9997Z" fill="#0B260F"/>
<path d="M7.50008 4C7.31601 4 7.16675 4.14924 7.16675 4.33333V7C7.16675 7.11907 7.23028 7.22913 7.33341 7.28867L9.93148 8.78867C10.0909 8.88073 10.2948 8.82607 10.3868 8.66667C10.4789 8.50727 10.4243 8.3034 10.2648 8.21133L7.83341 6.80753V4.33333C7.83341 4.14924 7.68415 4 7.50008 4Z" fill="#0B260F"/>
<path fill-rule="evenodd" clip-rule="evenodd" d="M7.49992 13.6663C11.1818 13.6663 14.1666 10.6815 14.1666 6.99967C14.1666 3.31777 11.1818 0.333008 7.49992 0.333008C3.81802 0.333008 0.833252 3.31777 0.833252 6.99967C0.833252 10.6815 3.81802 13.6663 7.49992 13.6663ZM7.49992 12.9997C10.8137 12.9997 13.4999 10.3134 13.4999 6.99967C13.4999 3.68597 10.8137 0.999674 7.49992 0.999674C4.18621 0.999674 1.49992 3.68597 1.49992 6.99967C1.49992 10.3134 4.18621 12.9997 7.49992 12.9997Z" stroke="#0B260F" stroke-width="0.4"/>
<path d="M7.50008 4C7.31601 4 7.16675 4.14924 7.16675 4.33333V7C7.16675 7.11907 7.23028 7.22913 7.33341 7.28867L9.93148 8.78867C10.0909 8.88073 10.2948 8.82607 10.3868 8.66667C10.4789 8.50727 10.4243 8.3034 10.2648 8.21133L7.83341 6.80753V4.33333C7.83341 4.14924 7.68415 4 7.50008 4Z" stroke="#0B260F" stroke-width="0.4"/>
</svg>
