<svg width="24" height="24" viewBox="0 0 24 24" fill="none" xmlns="http://www.w3.org/2000/svg">
<path fill-rule="evenodd" clip-rule="evenodd" d="M16 7C16 9.20914 14.2091 11 12 11C9.79086 11 8 9.20914 8 7C8 4.79086 9.79086 3 12 3C14.2091 3 16 4.79086 16 7ZM15 7C15 8.65686 13.6569 10 12 10C10.3431 10 9 8.65686 9 7C9 5.34315 10.3431 4 12 4C13.6569 4 15 5.34315 15 7Z" fill="white"/>
<path fill-rule="evenodd" clip-rule="evenodd" d="M20 17.1666C20 16.7333 19.8642 16.3074 19.5815 15.979C17.7477 13.8488 15.0313 12.5 12 12.5C8.96866 12.5 6.25235 13.8488 4.41847 15.979C4.13576 16.3074 4 16.7333 4 17.1666V19C4 20.1046 4.89543 21 6 21H18C19.1046 21 20 20.1046 20 19V17.1666ZM18 20C18.5523 20 19 19.5523 19 19V17.1666C19 16.9367 18.9281 16.7527 18.8237 16.6314C17.1717 14.7125 14.728 13.5 12 13.5C9.27202 13.5 6.82833 14.7125 5.17632 16.6314C5.07186 16.7527 5 16.9367 5 17.1666V19C5 19.5523 5.44772 20 6 20H18Z" fill="white"/>
</svg>
