<svg width="24" height="24" viewBox="0 0 24 24" fill="none" xmlns="http://www.w3.org/2000/svg">
<path fill-rule="evenodd" clip-rule="evenodd" d="M7 10.5C9.07107 10.5 10.75 8.82107 10.75 6.75C10.75 4.67893 9.07107 3 7 3C4.92893 3 3.25 4.67893 3.25 6.75C3.25 8.82107 4.92893 10.5 7 10.5ZM7 9.5C8.51878 9.5 9.75 8.26878 9.75 6.75C9.75 5.23122 8.51878 4 7 4C5.48122 4 4.25 5.23122 4.25 6.75C4.25 8.26878 5.48122 9.5 7 9.5Z" fill="white"/>
<path fill-rule="evenodd" clip-rule="evenodd" d="M20.75 6.75C20.75 8.82107 19.0711 10.5 17 10.5C14.9289 10.5 13.25 8.82107 13.25 6.75C13.25 4.67893 14.9289 3 17 3C19.0711 3 20.75 4.67893 20.75 6.75ZM19.75 6.75C19.75 8.26878 18.5188 9.5 17 9.5C15.4812 9.5 14.25 8.26878 14.25 6.75C14.25 5.23122 15.4812 4 17 4C18.5188 4 19.75 5.23122 19.75 6.75Z" fill="white"/>
<path d="M17 13C15.8387 13 14.7372 13.2551 13.7484 13.7128C13.4871 13.4622 13.2118 13.226 12.9238 13.0054C13.076 12.9252 13.2308 12.8493 13.3881 12.7779C14.4892 12.2782 15.7121 12 17 12C17.1639 12 17.3267 12.0045 17.4884 12.0134C19.9136 12.1468 22.0756 13.2679 23.5791 14.9811C23.6148 15.0218 23.6482 15.0641 23.6792 15.1078C23.8966 15.4136 24 15.7876 24 16.1668V18C24 19.1046 23.1046 20 22 20H14.2361C14.2684 19.9639 14.2998 19.9271 14.3303 19.8895C14.5441 19.6262 14.7141 19.326 14.8293 19H22C22.0022 19 22.0043 19 22.0065 19C22.5558 18.9965 23 18.5501 23 18V16.1668C23 15.9347 22.9278 15.755 22.8275 15.6407C21.4056 14.0204 19.3226 13 17 13Z" fill="white"/>
<path fill-rule="evenodd" clip-rule="evenodd" d="M14 16.1668C14 15.7334 13.8649 15.3068 13.5791 14.9811C11.9754 13.1536 9.62242 12 7 12C4.37758 12 2.02461 13.1536 0.420908 14.9811C0.135096 15.3068 0 15.7334 0 16.1668V18C0 19.1046 0.895431 20 2 20H12C13.1046 20 14 19.1046 14 18V16.1668ZM12 19C12.5523 19 13 18.5523 13 18V16.1668C13 15.9347 12.9278 15.755 12.8275 15.6407C11.4056 14.0204 9.32256 13 7 13C4.67745 13 2.59443 14.0204 1.17253 15.6407C1.07219 15.755 1 15.9347 1 16.1668V18C1 18.5523 1.44772 19 2 19H12Z" fill="white"/>
</svg>
