<svg width="20" height="16" viewBox="0 0 20 16" fill="none" xmlns="http://www.w3.org/2000/svg">
<path fill-rule="evenodd" clip-rule="evenodd" d="M0 2C0 0.89543 0.89543 0 2 0H18C19.1046 0 20 0.89543 20 2V14C20 15.1046 19.1046 16 18 16H2C0.89543 16 0 15.1046 0 14V2ZM1.5 2C1.5 1.72386 1.72386 1.5 2 1.5H18C18.2761 1.5 18.5 1.72386 18.5 2V14C18.5 14.2761 18.2761 14.5 18 14.5H2C1.72386 14.5 1.5 14.2761 1.5 14V2Z" fill="#1A1918"/>
<path d="M8 9.96121C8 10.4229 8.4998 10.7116 8.8998 10.4809L12.2992 8.51971C12.6994 8.28881 12.6994 7.71121 12.2992 7.48031L8.8998 5.51914C8.8498 5.4903 8.7983 5.46957 8.7463 5.45628C8.3827 5.36325 8 5.63479 8 6.03881V9.96121Z" fill="#1A1918"/>
</svg>
