<svg width="26" height="16" viewBox="0 0 26 16" fill="none" xmlns="http://www.w3.org/2000/svg">
<path fill-rule="evenodd" clip-rule="evenodd" d="M18 11.8811L23.4855 15.1724C24.152 15.5724 25 15.0922 25 14.3149V2.00175C25 1.19272 24.0893 0.718566 23.4265 1.18251L18 4.98109V3.08109C18 1.97652 17.1046 1.08109 16 1.08109H3C1.89543 1.08109 1 1.97652 1 3.08109V13.0811C1 14.1857 1.89543 15.0811 3 15.0811H16C17.1046 15.0811 18 14.1857 18 13.0811V11.8811ZM18 6.20176L24 2.00175V14.3149L18 10.7149V6.20176ZM17 3.08109C17 2.52881 16.5523 2.08109 16 2.08109H3C2.44772 2.08109 2 2.52881 2 3.08109V13.0811C2 13.6334 2.44772 14.0811 3 14.0811H16C16.5523 14.0811 17 13.6334 17 13.0811V3.08109Z" fill="#0B260F" stroke="#0B260F" stroke-width="0.4"/>
</svg>
