<svg width="22" height="21" viewBox="0 0 22 21" fill="none" xmlns="http://www.w3.org/2000/svg">
<path fill-rule="evenodd" clip-rule="evenodd" d="M1 7C1 5.89543 1.89543 5 3 5H19C20.1046 5 21 5.89543 21 7V18C21 19.1046 20.1046 20 19 20H3C1.89543 20 1 19.1046 1 18V7ZM2 7C2 6.44772 2.44772 6 3 6H19C19.5523 6 20 6.44772 20 7V18C20 18.5523 19.5523 19 19 19H3C2.44772 19 2 18.5523 2 18V7Z" fill="#0B260F"/>
<path d="M9.14999 14.2608C9.14999 14.7227 9.64999 15.0113 10.05 14.7804L13.0999 13.0196C13.1499 12.9908 13.1937 12.9565 13.2312 12.9181C13.4937 12.6498 13.45 12.1824 13.0999 11.9804L10.05 10.2196C9.64999 9.9887 9.14999 10.2773 9.14999 10.7392V14.2608Z" fill="#0B260F"/>
<path d="M4 1.5C4 1.22386 4.22386 1 4.5 1H17.5C17.7761 1 18 1.22386 18 1.5C18 1.77614 17.7761 2 17.5 2H4.5C4.22386 2 4 1.77614 4 1.5Z" fill="#0B260F"/>
<path fill-rule="evenodd" clip-rule="evenodd" d="M1 7C1 5.89543 1.89543 5 3 5H19C20.1046 5 21 5.89543 21 7V18C21 19.1046 20.1046 20 19 20H3C1.89543 20 1 19.1046 1 18V7ZM2 7C2 6.44772 2.44772 6 3 6H19C19.5523 6 20 6.44772 20 7V18C20 18.5523 19.5523 19 19 19H3C2.44772 19 2 18.5523 2 18V7Z" stroke="#0B260F" stroke-width="0.4"/>
<path d="M9.14999 14.2608C9.14999 14.7227 9.64999 15.0113 10.05 14.7804L13.0999 13.0196C13.1499 12.9908 13.1937 12.9565 13.2312 12.9181C13.4937 12.6498 13.45 12.1824 13.0999 11.9804L10.05 10.2196C9.64999 9.9887 9.14999 10.2773 9.14999 10.7392V14.2608Z" stroke="#0B260F" stroke-width="0.4"/>
<path d="M4 1.5C4 1.22386 4.22386 1 4.5 1H17.5C17.7761 1 18 1.22386 18 1.5C18 1.77614 17.7761 2 17.5 2H4.5C4.22386 2 4 1.77614 4 1.5Z" stroke="#0B260F" stroke-width="0.4"/>
</svg>
