<svg width="20" height="20" viewBox="0 0 20 20" fill="none" xmlns="http://www.w3.org/2000/svg">
<path fill-rule="evenodd" clip-rule="evenodd" d="M16.1782 5.34453C16.4907 5.65709 16.6663 6.08102 16.6663 6.52304V16.666C16.6663 17.5865 15.9201 18.3327 14.9996 18.3327H4.99967C4.0792 18.3327 3.33301 17.5865 3.33301 16.666V3.33268C3.33301 2.41221 4.0792 1.66602 4.99967 1.66602H11.8093C12.2513 1.66602 12.6753 1.84161 12.9878 2.15417L16.1782 5.34453ZM15.833 6.52304V16.666C15.833 17.1263 15.4599 17.4994 14.9996 17.4994H4.99967C4.53943 17.4994 4.16634 17.1263 4.16634 16.666V3.33268C4.16634 2.87245 4.53944 2.49935 4.99967 2.49935H11.8093C12.0303 2.49935 12.2423 2.58715 12.3986 2.74342L15.5889 5.93379C15.7452 6.09007 15.833 6.30203 15.833 6.52304Z" fill="#1A1918"/>
</svg>
