<svg width="400" height="64" viewBox="0 0 400 64" fill="none" xmlns="http://www.w3.org/2000/svg">
<path d="M145.254 2.10807C146.955 2.10807 148.582 3.12299 148.582 5.43629C148.582 7.74958 146.955 8.83765 145.254 8.83765C143.553 8.83765 141.926 7.74958 141.926 5.43629C141.926 3.12299 143.553 2.10807 145.254 2.10807ZM145.254 3.79961C144.44 3.79961 143.892 4.32993 143.892 5.44543C143.892 6.57007 144.44 7.14611 145.254 7.14611C146.068 7.14611 146.616 6.57007 146.616 5.44543C146.616 4.32993 146.068 3.79961 145.254 3.79961ZM152.706 2.10807C153.547 2.10807 154.425 2.3458 154.9 2.72983L154.068 4.18363C153.721 3.92762 153.218 3.79961 152.815 3.79961C151.974 3.79961 151.316 4.37565 151.316 5.50943C151.316 6.5335 151.855 7.14611 152.797 7.14611C153.3 7.14611 153.721 6.97238 154.132 6.64322L155.01 7.95988C154.562 8.41705 153.693 8.83765 152.596 8.83765C150.648 8.83765 149.359 7.51185 149.359 5.50029C149.359 3.45216 150.694 2.10807 152.706 2.10807ZM158.621 8.83765C157.113 8.83765 155.878 8.17018 155.878 6.34149V2.27265H157.707V6.2592C157.707 6.85352 158.018 7.1644 158.621 7.1644C159.206 7.1644 159.536 6.85352 159.536 6.2592V2.27265H161.364V6.34149C161.364 8.17018 160.13 8.83765 158.621 8.83765ZM162.642 8.67307V2.27265H164.47V7.02725H167.305V8.67307H162.642ZM171.317 2.10807C173.018 2.10807 174.646 3.12299 174.646 5.43629C174.646 7.74958 173.018 8.83765 171.317 8.83765C169.617 8.83765 167.989 7.74958 167.989 5.43629C167.989 3.12299 169.617 2.10807 171.317 2.10807ZM171.317 3.79961C170.504 3.79961 169.955 4.32993 169.955 5.44543C169.955 6.57007 170.504 7.14611 171.317 7.14611C172.131 7.14611 172.68 6.57007 172.68 5.44543C172.68 4.32993 172.131 3.79961 171.317 3.79961ZM178.073 2.10807C179.024 2.10807 179.874 2.42809 180.332 2.77554L179.564 4.12877C179.152 3.8179 178.53 3.59845 178.073 3.59845C177.662 3.59845 177.461 3.78132 177.461 4.01905C177.461 4.35736 177.899 4.49451 178.448 4.65909C179.317 4.9334 180.45 5.28085 180.45 6.66151C180.45 8.03302 179.271 8.78279 177.744 8.78279C176.93 8.78279 176.034 8.57249 175.385 8.18846L175.924 6.67065C176.473 6.94495 177.113 7.18268 177.79 7.18268C178.238 7.18268 178.466 6.99981 178.466 6.73466C178.466 6.42378 178.119 6.30491 177.607 6.16776C176.619 5.89346 175.513 5.59172 175.513 4.14706C175.513 2.84869 176.574 2.10807 178.073 2.10807Z" fill="#F15723"/>
<path d="M144.161 1.34612H145.558L146.269 0H144.694L144.161 1.34612Z" fill="#F15723"/>
<path fill-rule="evenodd" clip-rule="evenodd" d="M189.661 2.27249C191.737 2.27249 193.209 3.47943 193.209 5.44527C193.209 7.4294 191.737 8.6729 189.661 8.6729H187.439V2.27249H189.661ZM189.305 3.9366H189.762C190.667 3.9366 191.243 4.30234 191.243 5.44527C191.243 6.5882 190.667 7.03623 189.762 7.03623H189.305V3.9366Z" fill="#F15723"/>
<path fill-rule="evenodd" clip-rule="evenodd" d="M197.312 2.10791C199.013 2.10791 200.64 3.12283 200.64 5.43612C200.64 7.74942 199.013 8.83749 197.312 8.83749C195.611 8.83749 193.984 7.74942 193.984 5.43612C193.984 3.12283 195.611 2.10791 197.312 2.10791ZM195.949 5.44527C195.949 4.32977 196.498 3.79945 197.312 3.79945C198.126 3.79945 198.674 4.32977 198.674 5.44527C198.674 6.56991 198.126 7.14595 197.312 7.14595C196.498 7.14595 195.949 6.56991 195.949 5.44527Z" fill="#F15723"/>
<path d="M233.574 47.7178C233.574 52.4182 233.574 57.0498 233.574 61.7246C229.977 61.7246 226.453 61.7246 222.841 61.7246C222.841 61.4588 222.841 61.1928 222.841 60.9268C222.841 52.8452 222.817 44.7634 222.86 36.682C222.869 34.9464 221.48 33.2523 219.554 33.3689C218.575 33.4282 217.59 33.3793 216.555 33.3793C216.555 40.1356 216.555 46.8313 216.555 53.5831C212.985 53.5831 209.469 53.5831 205.922 53.5831C205.922 36.5006 205.922 19.4261 205.922 2.2958C208.75 2.16519 211.6 1.96382 213.943 4.06353C215.688 5.62672 216.545 7.58593 216.536 9.94582C216.516 15.3182 216.53 20.6907 216.53 26.0632C216.53 26.313 216.53 26.5628 216.53 26.9161C216.9 26.9161 217.233 26.9161 217.566 26.9161C219.012 26.9161 220.459 26.9155 221.905 26.9162C227.235 26.919 231.861 30.5582 233.141 35.6562C233.415 36.7512 233.533 37.908 233.555 39.0397C233.612 41.9084 233.574 44.779 233.574 47.7178Z" fill="#F15723"/>
<path d="M200.651 44.2727C200.662 45.8484 200.687 47.3463 200.124 48.7968C199.01 51.6639 196.206 53.6369 193.132 53.6378C183.88 53.6406 174.629 53.6399 165.377 53.6383C161.639 53.6377 158.523 50.9823 157.939 47.2926C157.864 46.8222 157.815 46.3423 157.814 45.8667C157.804 41.7575 157.829 37.6481 157.802 33.539C157.778 29.955 160.208 26.6901 164.138 25.9793C164.585 25.8985 165.053 25.9198 165.511 25.9197C174.648 25.9166 183.785 25.9536 192.921 25.8996C196.554 25.8781 199.677 28.3463 200.42 31.7033C200.543 32.2559 200.638 32.8278 200.641 33.3913C200.661 36.9954 200.651 40.5997 200.651 44.2727ZM187.17 47.1673C188.884 46.9645 189.981 45.4567 189.939 43.9043C189.864 41.1301 189.864 38.3511 189.938 35.5768C189.981 33.9681 188.772 32.3329 186.717 32.3239C181.715 32.302 176.714 32.3025 171.712 32.3237C169.666 32.3323 168.46 33.9926 168.514 35.5905C168.61 38.4093 168.6 41.2354 168.52 44.0552C168.469 45.8542 170.119 47.2039 171.694 47.1882C176.81 47.1374 181.927 47.1689 187.17 47.1673Z" fill="#F15723"/>
<path d="M145.531 63.9869C142.321 63.988 139.176 64.0285 136.033 63.9638C132.859 63.8985 129.725 61.1038 129.311 57.9499C129.116 56.4642 129.157 54.9476 129.087 53.3667C130.248 53.3667 131.296 53.3667 132.345 53.3667C133.4 53.3667 134.455 53.3667 135.536 53.3667C135.606 54.0385 135.602 54.704 135.757 55.3306C136.19 57.0922 137.789 57.6825 138.944 57.5737C140.705 57.4077 141.824 56.1536 141.832 54.5049C141.866 47.9899 141.908 41.475 141.923 34.96C141.939 28.1195 141.926 21.279 141.926 14.4385C141.926 14.1679 141.926 13.8972 141.926 13.5894C145.487 13.5894 148.987 13.5894 152.571 13.5894C152.571 13.8419 152.571 14.0857 152.571 14.3296C152.571 28.309 152.553 42.2884 152.583 56.2677C152.591 59.9686 150.143 63.2235 146.282 63.936C146.058 63.9773 145.825 63.9666 145.531 63.9869Z" fill="#F15723"/>
<path d="M243.133 27.0134C244.401 27.1909 245.549 27.5031 246.575 28.2064C252.341 32.1575 258.113 36.0993 263.883 40.0428C264.03 40.1432 264.189 40.2262 264.422 40.3645C264.422 35.865 264.422 31.4312 264.422 26.957C266.591 26.957 268.693 26.957 270.88 26.957C270.89 27.194 270.911 27.4363 270.911 27.6785C270.912 35.14 270.914 42.6014 270.911 50.0629C270.911 52.2516 269.505 53.6441 267.301 53.6367C266.569 53.6343 265.836 53.6232 265.107 53.5703C263.337 53.442 262.078 52.2688 260.708 51.3467C255.306 47.7112 249.918 44.0555 244.525 40.4078C244.454 40.36 244.379 40.3194 244.208 40.217C244.208 44.7123 244.208 49.122 244.208 53.5854C242.012 53.5854 239.895 53.5854 237.748 53.5854C237.748 44.7201 237.748 35.8659 237.748 26.9939C239.522 26.9939 241.298 26.9939 243.133 27.0134Z" fill="#F15723"/>
<path d="M174.779 16.4221C175.107 16.3786 175.377 16.3188 175.647 16.318C178.009 16.3106 180.371 16.33 182.732 16.3088C184.8 16.2902 185.99 17.7214 186.219 19.7881C186.265 20.6836 186.219 22.7338 186.219 22.7338H172.074C172.074 22.7338 172.074 19.8569 172.409 18.501C172.632 17.3526 173.552 16.6793 174.779 16.4221Z" fill="#F15723"/>
</svg>
