<svg width="20" height="20" viewBox="0 0 20 20" fill="none" xmlns="http://www.w3.org/2000/svg">
<g clip-path="url(#clip0_793_11756)">
<mask id="mask0_793_11756" style="mask-type:luminance" maskUnits="userSpaceOnUse" x="0" y="0" width="20" height="20">
<path d="M20 0H0V20H20V0Z" fill="white"/>
</mask>
<g mask="url(#mask0_793_11756)">
<path fill-rule="evenodd" clip-rule="evenodd" d="M14.1667 13.1672L18.7379 15.9099C19.2933 16.2432 20 15.8431 20 15.1953V4.9344C20 4.26021 19.2411 3.86508 18.6887 4.2517L14.1667 7.41718V5.83385C14.1667 4.91337 13.4205 4.16718 12.5 4.16718H1.66667C0.746193 4.16718 0 4.91337 0 5.83385V14.1672C0 15.0877 0.746193 15.8338 1.66667 15.8338H12.5C13.4205 15.8338 14.1667 15.0877 14.1667 14.1672V13.1672ZM14.1667 8.43441L19.1667 4.9344V15.1953L14.1667 12.1953V8.43441ZM13.3333 5.83385C13.3333 5.37361 12.9602 5.00051 12.5 5.00051H1.66667C1.20643 5.00051 0.833333 5.37361 0.833333 5.83385V14.1672C0.833333 14.6274 1.20643 15.0005 1.66667 15.0005H12.5C12.9602 15.0005 13.3333 14.6274 13.3333 14.1672V5.83385Z" fill="#1A1918"/>
</g>
</g>
<defs>
<clipPath id="clip0_793_11756">
<rect width="20" height="20" fill="white"/>
</clipPath>
</defs>
</svg>
