<svg width="17" height="17" viewBox="0 0 17 17" fill="none" xmlns="http://www.w3.org/2000/svg">
<path d="M2.9998 14.5587C1.45582 13.0147 0.605469 10.9618 0.605469 8.77821C0.605469 6.59469 1.45582 4.54183 2.9998 2.99785C4.54379 1.45386 6.59664 0.603516 8.78016 0.603516C10.9637 0.603516 13.0165 1.45386 14.5605 2.99785C16.1045 4.54183 16.9549 6.59469 16.9549 8.77821C16.9549 10.9617 16.1045 13.0146 14.5605 14.5587C13.0165 16.1026 10.9637 16.953 8.78016 16.953C6.59664 16.9529 4.54379 16.1026 2.9998 14.5587Z" fill="#9CCF40"/>
<path d="M11.6452 10.9531C11.5537 10.9531 11.4615 10.9823 11.3836 11.0427C10.6967 11.5747 9.82085 11.8445 8.78031 11.8445C7.73986 11.8445 6.8639 11.5747 6.17699 11.0427C5.99021 10.8981 5.72153 10.9322 5.57688 11.119C5.43223 11.3058 5.4664 11.5745 5.65318 11.7191C6.49366 12.37 7.54573 12.7001 8.7804 12.7001C10.0151 12.7001 11.0671 12.37 11.9075 11.7191C12.0943 11.5745 12.1285 11.3058 11.9838 11.119C11.8994 11.0101 11.7729 10.9531 11.6452 10.9531Z" fill="black"/>
<path d="M11.3562 8.92477C11.9455 8.92477 12.4233 8.29365 12.4233 7.51512C12.4233 6.73659 11.9455 6.10547 11.3562 6.10547C10.7668 6.10547 10.2891 6.73659 10.2891 7.51512C10.2891 8.29365 10.7668 8.92477 11.3562 8.92477Z" fill="black"/>
<path d="M6.04367 8.92477C6.63302 8.92477 7.11078 8.29365 7.11078 7.51512C7.11078 6.73659 6.63302 6.10547 6.04367 6.10547C5.45432 6.10547 4.97656 6.73659 4.97656 7.51512C4.97656 8.29365 5.45432 8.92477 6.04367 8.92477Z" fill="black"/>
<path d="M6.41566 7.20826C6.54058 7.20826 6.64186 7.10699 6.64186 6.98206C6.64186 6.85713 6.54058 6.75586 6.41566 6.75586C6.29073 6.75586 6.18945 6.85713 6.18945 6.98206C6.18945 7.10699 6.29073 7.20826 6.41566 7.20826Z" fill="white"/>
<path d="M11.7291 7.20826C11.8541 7.20826 11.9553 7.10699 11.9553 6.98206C11.9553 6.85713 11.8541 6.75586 11.7291 6.75586C11.6042 6.75586 11.5029 6.85713 11.5029 6.98206C11.5029 7.10699 11.6042 7.20826 11.7291 7.20826Z" fill="white"/>
<path d="M10.3867 5.64438C10.4144 5.64001 10.4421 5.63599 10.4698 5.63214C10.4471 5.6352 10.4245 5.63826 10.402 5.64123C10.761 5.59316 11.1255 5.59578 11.4845 5.64342C11.4618 5.64036 11.4392 5.63739 11.4166 5.63433C11.7437 5.6789 12.0659 5.76071 12.3707 5.88814C12.3504 5.87958 12.3301 5.87102 12.3097 5.86245C12.5035 5.94443 12.6894 6.04477 12.859 6.16958C12.9091 6.20646 12.9985 6.2111 13.0557 6.19528C13.1149 6.17894 13.1791 6.13322 13.2082 6.07798C13.2395 6.01872 13.2553 5.94696 13.2339 5.88132C13.2122 5.81437 13.173 5.77023 13.1166 5.7288C12.8237 5.51335 12.4797 5.36504 12.1319 5.26382C11.7502 5.15273 11.3476 5.09776 10.9502 5.09575C10.7156 5.09461 10.4825 5.11567 10.251 5.15211C10.1919 5.16138 10.1273 5.22012 10.0985 5.26941C10.0665 5.32413 10.0529 5.4048 10.0728 5.46607C10.0928 5.52787 10.1311 5.58747 10.1901 5.61859C10.2545 5.65268 10.3151 5.65565 10.3867 5.64438Z" fill="black"/>
<path d="M7.36847 5.15188C6.56855 5.0262 5.73499 5.11675 4.99302 5.44705C4.82048 5.52388 4.65502 5.61661 4.50285 5.72857C4.44753 5.76922 4.40444 5.81248 4.38556 5.88109C4.36869 5.94219 4.37629 6.02356 4.41126 6.07775C4.47969 6.18395 4.6455 6.25395 4.76052 6.16935C4.93017 6.04454 5.11608 5.9442 5.30985 5.86222C5.28949 5.87078 5.26921 5.87934 5.24885 5.88791C5.55362 5.76039 5.87588 5.67857 6.20294 5.63409C6.1803 5.63714 6.15767 5.64012 6.13512 5.64318C6.49408 5.59554 6.85856 5.59293 7.21761 5.641C7.19497 5.63794 7.17234 5.63497 7.14979 5.63191C7.17749 5.63575 7.2052 5.63978 7.23282 5.64415C7.30292 5.65516 7.36585 5.65568 7.42948 5.61844C7.48245 5.5875 7.53296 5.52676 7.54677 5.46593C7.56163 5.40055 7.5584 5.32722 7.52108 5.26927C7.48734 5.217 7.43263 5.16202 7.36847 5.15188Z" fill="black"/>
</svg>
