<svg width="17" height="17" viewBox="0 0 17 17" fill="none" xmlns="http://www.w3.org/2000/svg">
<path d="M8.22068 16.3943C6.03716 16.3943 3.98431 15.544 2.44023 14C0.896247 12.456 0.0458984 10.4031 0.0458984 8.21962C0.0458984 6.0361 0.896247 3.98324 2.44023 2.43926C3.98422 0.895271 6.03707 0.0449219 8.22068 0.0449219C10.4043 0.0449219 12.4571 0.895271 14.001 2.43926C15.545 3.98324 16.3954 6.0361 16.3954 8.21962C16.3954 10.4031 15.545 12.456 14.001 14C12.4571 15.544 10.4042 16.3943 8.22068 16.3943Z" fill="#17C36B"/>
<path d="M11.2285 10.6069C10.7492 11.8638 9.34816 12.5651 8.051 12.5485C7.06718 12.5552 6.03048 12.172 5.37364 11.4223C5.16291 11.1798 4.98392 10.9091 4.87353 10.6069C4.78638 10.3663 4.91076 10.1005 5.15138 10.0133C5.26929 9.96929 5.3871 9.9824 5.49793 10.0221C5.68078 10.0831 5.85533 10.1523 6.03459 10.2125C7.28001 10.6334 8.64403 10.6513 9.90081 10.2664C10.1542 10.1899 10.4029 10.0855 10.6575 10.0057C11.018 9.89159 11.3609 10.2555 11.2285 10.6069Z" fill="black"/>
<path d="M3.18421 4.85272C3.56713 4.37252 4.1072 4.01338 4.69586 3.83953C4.87233 3.78744 5.05343 3.75598 5.23628 3.73701C5.29738 3.73063 5.37507 3.77005 5.41676 3.81174C5.46108 3.85605 5.49439 3.92869 5.4915 3.99223C5.48853 4.05822 5.46685 4.12674 5.41676 4.17272C5.36397 4.22114 5.30725 4.24011 5.23628 4.24745C5.20954 4.25025 5.18296 4.25339 5.1563 4.2568C5.17894 4.25374 5.20158 4.25068 5.22413 4.24771C4.98919 4.27979 4.76028 4.34377 4.54177 4.43572C4.56213 4.42715 4.58241 4.41859 4.60277 4.41002C4.38802 4.50162 4.18822 4.6197 4.00091 4.75867C3.9601 4.78892 4.04977 4.71978 4.01009 4.7515C3.9996 4.7599 3.98903 4.7682 3.97863 4.77659C3.95433 4.79625 3.93029 4.81636 3.90661 4.8369C3.86264 4.87492 3.8199 4.91434 3.77838 4.95498C3.69535 5.03627 3.61765 5.1228 3.54528 5.2137C3.50717 5.26151 3.42292 5.28843 3.36479 5.28843C3.30221 5.28843 3.22739 5.26063 3.1843 5.2137C3.13964 5.16501 3.10651 5.10121 3.10957 5.03321C3.11263 4.96136 3.13973 4.90857 3.18421 4.85272Z" fill="black"/>
<path d="M12.5567 5.21415C12.4843 5.12334 12.4066 5.03681 12.3236 4.95544C12.2821 4.91479 12.2394 4.87537 12.1954 4.83735C12.1735 4.8183 12.1512 4.79968 12.1286 4.78133C12.1165 4.77145 12.1042 4.76175 12.0919 4.75196C12.0564 4.72355 12.1402 4.78832 12.1011 4.75913C11.9146 4.61946 11.7136 4.50199 11.4992 4.41047C11.5196 4.41904 11.5399 4.42761 11.5603 4.43617C11.3417 4.34422 11.1128 4.28024 10.8779 4.24817C10.9005 4.25123 10.9232 4.25429 10.9457 4.25726C10.9191 4.25376 10.8925 4.25061 10.8657 4.24791C10.7963 4.24065 10.7364 4.22422 10.6853 4.17317C10.6409 4.12886 10.6076 4.05623 10.6105 3.99268C10.6162 3.86621 10.7235 3.72261 10.8658 3.73738C11.1947 3.77164 11.5044 3.85607 11.8061 3.99102C12.0873 4.11671 12.346 4.29038 12.5767 4.49403C12.7007 4.60355 12.8148 4.72382 12.9179 4.85317C12.9617 4.90815 12.9926 4.96051 12.9926 5.03366C12.9926 5.09624 12.9648 5.17106 12.9179 5.21415C12.8692 5.25882 12.8054 5.29194 12.7374 5.28888C12.674 5.28608 12.598 5.2659 12.5567 5.21415Z" fill="black"/>
<path d="M4.8962 7.48321C4.93894 7.45087 4.98132 7.41809 5.0238 7.38531C5.00562 7.39939 4.98736 7.41346 4.96918 7.42753C5.24642 7.21321 5.5213 6.99506 5.78657 6.76597C5.78657 6.89323 5.78657 7.02057 5.78657 7.14783C5.52121 6.91875 5.24642 6.70059 4.96918 6.48628C4.98736 6.50035 5.00562 6.51442 5.0238 6.52849C4.98141 6.49572 4.93894 6.46303 4.8962 6.4306C4.83781 6.38629 4.79236 6.34285 4.77208 6.26925C4.75425 6.20457 4.76229 6.11857 4.79927 6.06115C4.83641 6.00346 4.89182 5.95277 4.96061 5.93703C5.02651 5.922 5.11216 5.92139 5.16871 5.96421C5.50889 6.22214 5.84522 6.48689 6.16835 6.76588C6.27324 6.85643 6.27297 7.05746 6.16835 7.14775C5.84522 7.42674 5.50889 7.69149 5.16871 7.94942C5.11671 7.98883 5.0203 7.99312 4.96061 7.9766C4.89794 7.95938 4.83012 7.91096 4.79927 7.85248C4.76614 7.78982 4.74953 7.71386 4.77208 7.64438C4.79524 7.57332 4.83702 7.52813 4.8962 7.48321Z" fill="black"/>
<path d="M10.9337 7.9492C10.5935 7.69128 10.2572 7.42653 9.93403 7.14754C9.82915 7.05699 9.82941 6.85596 9.93403 6.76567C10.2572 6.48668 10.5935 6.22193 10.9337 5.964C10.9857 5.92458 11.0821 5.9203 11.1418 5.93682C11.2044 5.95404 11.2723 6.00246 11.3031 6.06093C11.3362 6.1236 11.3529 6.19955 11.3303 6.26904C11.3072 6.34036 11.2654 6.38555 11.2062 6.43039C11.1634 6.46273 11.1211 6.4955 11.0786 6.52828C11.0968 6.51421 11.115 6.50014 11.1332 6.48607C10.856 6.70038 10.5811 6.91854 10.3158 7.14762C10.3158 7.02036 10.3158 6.89301 10.3158 6.76575C10.5812 6.99484 10.856 7.213 11.1332 7.42732C11.115 7.41324 11.0968 7.39917 11.0786 7.3851C11.121 7.41787 11.1634 7.45057 11.2062 7.48299C11.2646 7.52731 11.31 7.57074 11.3303 7.64434C11.3481 7.70902 11.3401 7.79502 11.3031 7.85245C11.266 7.91014 11.2106 7.96083 11.1418 7.97656C11.0759 7.99142 10.9902 7.99203 10.9337 7.9492Z" fill="black"/>
</svg>
