<svg width="17" height="17" viewBox="0 0 17 17" fill="none" xmlns="http://www.w3.org/2000/svg">
<path d="M2.39433 13.9551C0.850344 12.4111 0 10.3583 0 8.17469C0 5.99117 0.850344 3.93832 2.39433 2.39433C3.93832 0.850344 5.99117 0 8.17469 0C10.3582 0 12.4111 0.850344 13.9551 2.39433C15.4991 3.93832 16.3495 5.99117 16.3495 8.17469C16.3495 10.3582 15.4991 12.4111 13.9551 13.9551C12.4111 15.4991 10.3583 16.3495 8.17469 16.3495C5.99108 16.3495 3.9384 15.4991 2.39433 13.9551Z" fill="#EDBE00"/>
<path d="M9.58144 11.7969H6.73732C6.50106 11.7969 6.30957 11.6054 6.30957 11.3692C6.30957 11.1329 6.50106 10.9414 6.73732 10.9414H9.58144C9.81769 10.9414 10.0092 11.1329 10.0092 11.3692C10.0092 11.6054 9.81769 11.7969 9.58144 11.7969Z" fill="black"/>
<path d="M10.7351 8.46774C11.3244 8.46774 11.8022 7.83662 11.8022 7.05809C11.8022 6.27956 11.3244 5.64844 10.7351 5.64844C10.1457 5.64844 9.66797 6.27956 9.66797 7.05809C9.66797 7.83662 10.1457 8.46774 10.7351 8.46774Z" fill="black"/>
<path d="M5.42258 8.46774C6.01193 8.46774 6.48969 7.83662 6.48969 7.05809C6.48969 6.27956 6.01193 5.64844 5.42258 5.64844C4.83323 5.64844 4.35547 6.27956 4.35547 7.05809C4.35547 7.83662 4.83323 8.46774 5.42258 8.46774Z" fill="black"/>
<path d="M5.79554 6.75123C5.92047 6.75123 6.02174 6.64996 6.02174 6.52503C6.02174 6.4001 5.92047 6.29883 5.79554 6.29883C5.67061 6.29883 5.56934 6.4001 5.56934 6.52503C5.56934 6.64996 5.67061 6.75123 5.79554 6.75123Z" fill="white"/>
<path d="M11.108 6.75123C11.233 6.75123 11.3342 6.64996 11.3342 6.52503C11.3342 6.4001 11.233 6.29883 11.108 6.29883C10.9831 6.29883 10.8818 6.4001 10.8818 6.52503C10.8818 6.64996 10.9831 6.75123 11.108 6.75123Z" fill="white"/>
<path d="M11.8387 4.68555C11.5896 4.68555 11.3405 4.68555 11.0914 4.68555C10.6961 4.68555 10.3007 4.68555 9.90534 4.68555C9.81435 4.68555 9.72337 4.68555 9.63247 4.68555C9.49892 4.68555 9.37105 4.80293 9.37716 4.94085C9.38337 5.07913 9.4893 5.19616 9.63247 5.19616C9.88157 5.19616 10.1307 5.19616 10.3798 5.19616C10.7751 5.19616 11.1705 5.19616 11.5658 5.19616C11.6568 5.19616 11.7478 5.19616 11.8387 5.19616C11.9723 5.19616 12.1001 5.07878 12.094 4.94085C12.0878 4.80249 11.9819 4.68555 11.8387 4.68555Z" fill="black"/>
<path d="M6.52621 4.68555C6.27711 4.68555 6.02801 4.68555 5.77891 4.68555C5.38358 4.68555 4.98817 4.68555 4.59284 4.68555C4.50185 4.68555 4.41087 4.68555 4.31997 4.68555C4.18642 4.68555 4.05855 4.80293 4.06466 4.94085C4.07087 5.07913 4.1768 5.19616 4.31997 5.19616C4.56907 5.19616 4.81817 5.19616 5.06727 5.19616C5.46259 5.19616 5.85801 5.19616 6.25334 5.19616C6.34433 5.19616 6.43531 5.19616 6.52621 5.19616C6.65976 5.19616 6.78764 5.07878 6.78152 4.94085C6.77531 4.80249 6.66929 4.68555 6.52621 4.68555Z" fill="black"/>
</svg>
