<svg width="17" height="17" viewBox="0 0 17 17" fill="none" xmlns="http://www.w3.org/2000/svg">
<path d="M2.94413 14.0001C1.40015 12.4561 0.549805 10.4032 0.549805 8.21961C0.549805 6.03609 1.40015 3.98324 2.94413 2.43925C4.48812 0.895266 6.54098 0.0449219 8.72449 0.0449219C10.908 0.0449219 12.9609 0.895266 14.5049 2.43925C16.0489 3.98324 16.8993 6.03609 16.8993 8.21961C16.8993 10.4031 16.0489 12.456 14.5049 14.0001C12.961 15.544 10.9081 16.3944 8.72449 16.3944C6.54089 16.3944 4.48821 15.544 2.94413 14.0001Z" fill="#E23E44"/>
<path d="M11.4109 8.36617C12.0002 8.36617 12.478 7.73504 12.478 6.95652C12.478 6.17799 12.0002 5.54688 11.4109 5.54688C10.8215 5.54688 10.3438 6.17799 10.3438 6.95652C10.3438 7.73504 10.8215 8.36617 11.4109 8.36617Z" fill="black"/>
<path d="M6.09836 8.36617C6.68771 8.36617 7.16547 7.73504 7.16547 6.95652C7.16547 6.17799 6.68771 5.54688 6.09836 5.54688C5.50901 5.54688 5.03125 6.17799 5.03125 6.95652C5.03125 7.73504 5.50901 8.36617 6.09836 8.36617Z" fill="black"/>
<path d="M5.68725 11.9262C6.16657 10.6694 7.56757 9.96806 8.86473 9.98466C9.84854 9.97793 10.8852 10.3611 11.5421 11.1109C11.7528 11.3533 11.9318 11.6241 12.0422 11.9262C12.1293 12.1669 12.005 12.4327 11.7643 12.5198C11.6464 12.5639 11.5286 12.5508 11.4178 12.5111C11.2349 12.4501 11.0604 12.3808 10.8811 12.3206C9.63571 11.8998 8.27169 11.8818 7.01491 12.2668C6.76153 12.3433 6.51278 12.4476 6.25817 12.5274C5.89772 12.6415 5.55484 12.2775 5.68725 11.9262Z" fill="black"/>
<path d="M6.47034 6.64967C6.59527 6.64967 6.69654 6.54839 6.69654 6.42347C6.69654 6.29854 6.59527 6.19727 6.47034 6.19727C6.34542 6.19727 6.24414 6.29854 6.24414 6.42347C6.24414 6.54839 6.34542 6.64967 6.47034 6.64967Z" fill="white"/>
<path d="M11.7828 6.64967C11.9078 6.64967 12.009 6.54839 12.009 6.42347C12.009 6.29854 11.9078 6.19727 11.7828 6.19727C11.6579 6.19727 11.5566 6.29854 11.5566 6.42347C11.5566 6.54839 11.6579 6.64967 11.7828 6.64967Z" fill="white"/>
<path d="M4.75402 5.61009C4.83749 5.59025 4.92175 5.57442 5.0067 5.56262C4.98406 5.56568 4.96143 5.56874 4.93888 5.57171C5.18125 5.53928 5.42659 5.5406 5.66888 5.57294C5.64624 5.56988 5.6236 5.56691 5.60105 5.56385C5.84779 5.59793 6.08894 5.66393 6.31881 5.75981C6.29845 5.75125 6.27817 5.74267 6.25781 5.73411C6.43943 5.81085 6.61319 5.9056 6.77489 6.01852C6.7942 6.03198 6.81334 6.0458 6.83222 6.05978C6.84253 6.06739 6.85276 6.07516 6.86307 6.08285C6.88763 6.1012 6.81413 6.04413 6.84691 6.07044C6.88703 6.1026 6.92661 6.1352 6.96507 6.16929C7.03884 6.23476 7.10859 6.3045 7.17449 6.37784C7.26399 6.47748 7.44562 6.47573 7.53547 6.37784C7.63318 6.27147 7.63091 6.12314 7.53547 6.01686C6.98054 5.39891 6.15003 5.04519 5.32293 5.03724C5.08668 5.03496 4.84798 5.06302 4.6182 5.11774C4.48823 5.14868 4.39846 5.30373 4.43989 5.43178C4.48385 5.56726 4.6147 5.6433 4.75402 5.61009Z" fill="black"/>
<path d="M13.1105 5.11802C12.3023 4.92564 11.4157 5.08979 10.7279 5.55609C10.5329 5.68833 10.3508 5.84164 10.1932 6.01715C10.104 6.11644 10.0879 6.28145 10.1932 6.37812C10.2906 6.46753 10.4589 6.48422 10.5542 6.37812C10.6201 6.30478 10.6898 6.23504 10.7636 6.16957C10.8004 6.13688 10.8382 6.10525 10.8768 6.07474C10.9092 6.04913 10.8713 6.07789 10.8606 6.08706C10.8703 6.07876 10.8811 6.07151 10.8914 6.0639C10.912 6.04861 10.9328 6.03357 10.9539 6.01889C11.1155 5.90587 11.2893 5.81122 11.471 5.73448C11.4506 5.74305 11.4303 5.75161 11.41 5.76018C11.6398 5.66429 11.881 5.59831 12.1278 5.56422C12.1052 5.56728 12.0825 5.57034 12.06 5.57331C12.3023 5.54097 12.5476 5.53966 12.79 5.57208C12.7673 5.56903 12.7447 5.56597 12.7221 5.56299C12.8071 5.57479 12.8913 5.59052 12.9748 5.61045C13.1044 5.64131 13.2575 5.56981 13.2889 5.43214C13.3186 5.30104 13.2494 5.15106 13.1105 5.11802Z" fill="black"/>
</svg>
