<svg width="26" height="19" viewBox="0 0 26 19" fill="none" xmlns="http://www.w3.org/2000/svg">
<path fill-rule="evenodd" clip-rule="evenodd" d="M8 8.5C10.0711 8.5 11.75 6.82107 11.75 4.75C11.75 2.67893 10.0711 1 8 1C5.92893 1 4.25 2.67893 4.25 4.75C4.25 6.82107 5.92893 8.5 8 8.5ZM8 7.5C9.51878 7.5 10.75 6.26878 10.75 4.75C10.75 3.23122 9.51878 2 8 2C6.48122 2 5.25 3.23122 5.25 4.75C5.25 6.26878 6.48122 7.5 8 7.5Z" fill="#163F23" stroke="#163F23" stroke-width="0.4"/>
<path fill-rule="evenodd" clip-rule="evenodd" d="M21.75 4.75C21.75 6.82107 20.0711 8.5 18 8.5C15.9289 8.5 14.25 6.82107 14.25 4.75C14.25 2.67893 15.9289 1 18 1C20.0711 1 21.75 2.67893 21.75 4.75ZM20.75 4.75C20.75 6.26878 19.5188 7.5 18 7.5C16.4812 7.5 15.25 6.26878 15.25 4.75C15.25 3.23122 16.4812 2 18 2C19.5188 2 20.75 3.23122 20.75 4.75Z" fill="#163F23" stroke="#163F23" stroke-width="0.4"/>
<path d="M18 11C16.8387 11 15.7372 11.2551 14.7484 11.7128C14.4871 11.4622 14.2118 11.226 13.9238 11.0054C14.076 10.9252 14.2308 10.8493 14.3881 10.7779C15.4892 10.2782 16.7121 10 18 10C18.1639 10 18.3267 10.0045 18.4884 10.0134C20.9136 10.1468 23.0756 11.2679 24.5791 12.9811C24.6148 13.0218 24.6482 13.0641 24.6792 13.1078C24.8966 13.4136 25 13.7876 25 14.1668V16C25 17.1046 24.1046 18 23 18H15.2361C15.2684 17.9639 15.2998 17.9271 15.3303 17.8895C15.5441 17.6262 15.7141 17.326 15.8293 17H23C23.0022 17 23.0043 17 23.0065 17C23.5558 16.9965 24 16.5501 24 16V14.1668C24 13.9347 23.9278 13.755 23.8275 13.6407C22.4056 12.0204 20.3226 11 18 11Z" fill="#163F23" stroke="#163F23" stroke-width="0.4"/>
<path fill-rule="evenodd" clip-rule="evenodd" d="M15 14.1668C15 13.7334 14.8649 13.3068 14.5791 12.9811C12.9754 11.1536 10.6224 10 8 10C5.37758 10 3.02461 11.1536 1.42091 12.9811C1.1351 13.3068 1 13.7334 1 14.1668V16C1 17.1046 1.89543 18 3 18H13C14.1046 18 15 17.1046 15 16V14.1668ZM13 17C13.5523 17 14 16.5523 14 16V14.1668C14 13.9347 13.9278 13.755 13.8275 13.6407C12.4056 12.0204 10.3226 11 8 11C5.67745 11 3.59443 12.0204 2.17253 13.6407C2.07219 13.755 2 13.9347 2 14.1668V16C2 16.5523 2.44772 17 3 17H13Z" fill="#163F23" stroke="#163F23" stroke-width="0.4"/>
</svg>
