<svg width="18" height="20" viewBox="0 0 18 20" fill="none" xmlns="http://www.w3.org/2000/svg">
<path fill-rule="evenodd" clip-rule="evenodd" d="M13 5C13 7.20914 11.2091 9 9 9C6.79086 9 5 7.20914 5 5C5 2.79086 6.79086 1 9 1C11.2091 1 13 2.79086 13 5ZM12 5C12 6.65686 10.6569 8 9 8C7.3431 8 6 6.65686 6 5C6 3.34315 7.3431 2 9 2C10.6569 2 12 3.34315 12 5Z" fill="#163F23" stroke="#163F23" stroke-width="0.4"/>
<path fill-rule="evenodd" clip-rule="evenodd" d="M17 15.1666C17 14.7333 16.8642 14.3074 16.5815 13.979C14.7477 11.8488 12.0313 10.5 9 10.5C5.96866 10.5 3.25235 11.8488 1.41847 13.979C1.13576 14.3074 1 14.7333 1 15.1666V17C1 18.1046 1.89543 19 3 19H15C16.1046 19 17 18.1046 17 17V15.1666ZM15 18C15.5523 18 16 17.5523 16 17V15.1666C16 14.9367 15.9281 14.7527 15.8237 14.6314C14.1717 12.7125 11.728 11.5 9 11.5C6.27202 11.5 3.82833 12.7125 2.17632 14.6314C2.07186 14.7527 2 14.9367 2 15.1666V17C2 17.5523 2.44772 18 3 18H15Z" fill="#163F23" stroke="#163F23" stroke-width="0.4"/>
</svg>
