<svg width="21" height="23" viewBox="0 0 21 23" fill="none" xmlns="http://www.w3.org/2000/svg">
<path fill-rule="evenodd" clip-rule="evenodd" d="M17.9923 6H15.8712C15.8712 3.23858 13.6326 1 10.8712 1C8.10974 1 5.87117 3.23858 5.87117 6H3.75007C2.69395 6 1.81985 6.82118 1.75397 7.87525L1.00397 19.8752C0.932014 21.0266 1.84643 22 3.00007 22H18.7423C19.8959 22 20.8103 21.0266 20.7384 19.8752L19.9884 7.87524C19.9225 6.82117 19.0484 6 17.9923 6ZM5.87117 7H3.75007C3.22201 7 2.78496 7.41059 2.75202 7.93763L2.00202 19.9376C1.96604 20.5133 2.42325 21 3.00007 21H18.7423C19.3191 21 19.7763 20.5133 19.7403 19.9376L18.9903 7.93762C18.9574 7.41059 18.5203 7 17.9923 7H15.8712V11.5C15.8712 11.7761 15.6473 12 15.3712 12C15.095 12 14.8712 11.7761 14.8712 11.5V7H6.87117V11.5C6.87117 11.7761 6.64731 12 6.37117 12C6.09503 12 5.87117 11.7761 5.87117 11.5V7ZM10.8712 2C13.0803 2 14.8712 3.79086 14.8712 6H6.87117C6.87117 3.79086 8.66203 2 10.8712 2Z" fill="#163F23" stroke="#163F23" stroke-width="0.4"/>
</svg>
