<svg width="25" height="25" viewBox="0 0 25 25" fill="none" xmlns="http://www.w3.org/2000/svg">
<rect x="1" y="1" width="23" height="23" rx="11.5" stroke="#C1C6BF" stroke-width="2"/>
<path d="M17.6949 7.03813C17.4281 7.13682 17.4179 7.14579 14.0228 11.1411L10.681 15.0707L9.169 13.2913C7.76368 11.6436 7.64424 11.509 7.48668 11.4223C7.08262 11.201 6.65315 11.2697 6.33295 11.6107C6.07883 11.8798 5.95431 12.3104 6.0153 12.6992C6.07883 13.0999 6.03817 13.0491 8.14741 15.5223C9.99236 17.6874 10.1067 17.816 10.2617 17.8968C10.46 17.9984 10.7319 18.0284 10.9148 17.9715C11.2249 17.8728 11.0927 18.0194 15.0545 13.3571C19.1561 8.52443 18.9223 8.82049 18.9859 8.39284C19.0723 7.79773 18.7546 7.22055 18.2438 7.03813C18.1015 6.98729 17.8321 6.98729 17.6949 7.03813Z" fill="#BEBEBE"/>
</svg>
