<svg width="45" height="45" viewBox="0 0 45 45" fill="none" xmlns="http://www.w3.org/2000/svg">
<rect width="45" height="45" rx="22.5" fill="#DEEBE5"/>
<path d="M20.0255 17.2722C21.3917 16.0763 23.6083 16.0763 24.9745 17.2722C26.3418 18.468 26.3418 20.407 24.9745 21.6028C24.7377 21.8117 24.4728 21.9832 24.1928 22.1185C23.3237 22.5397 22.5012 23.284 22.5012 24.25V25.125M33 22.5C33 23.8789 32.7284 25.2443 32.2007 26.5182C31.6731 27.7921 30.8996 28.9496 29.9246 29.9246C28.9496 30.8996 27.7921 31.6731 26.5182 32.2007C25.2443 32.7284 23.8789 33 22.5 33C21.1211 33 19.7557 32.7284 18.4818 32.2007C17.2079 31.6731 16.0504 30.8996 15.0754 29.9246C14.1004 28.9496 13.3269 27.7921 12.7993 26.5182C12.2716 25.2443 12 23.8789 12 22.5C12 19.7152 13.1062 17.0445 15.0754 15.0754C17.0445 13.1062 19.7152 12 22.5 12C25.2848 12 27.9555 13.1062 29.9246 15.0754C31.8938 17.0445 33 19.7152 33 22.5ZM22.5 28.625H22.5093V28.6343H22.5V28.625Z" stroke="#245C39" stroke-width="1.5" stroke-linecap="round" stroke-linejoin="round"/>
</svg>
