<svg width="138" height="143" viewBox="0 0 138 143" fill="none" xmlns="http://www.w3.org/2000/svg">
<path d="M2 0C0.895431 0 0 0.895433 0 2V122.5L11.5 78.1047V29.5C11.5 28.3954 12.3954 27.5 13.5 27.5H117V18.5C117 17.3954 116.105 16.5 115 16.5H48.0979C47.4141 16.5 46.7777 16.1506 46.4106 15.5738L37.0894 0.926249C36.7223 0.349353 36.0859 0 35.4021 0H2Z" fill="#B3BAAE"/>
<path d="M21.1118 40.9985C21.3404 40.1162 22.1365 39.5 23.0479 39.5H117H127.5V29.5C127.5 28.3954 126.605 27.5 125.5 27.5H117H13.5C12.3954 27.5 11.5 28.3954 11.5 29.5V78.1047L21.1118 40.9985Z" fill="#F7A990"/>
<path d="M69.5 116C67.9675 116 66.4643 115.875 65 115.634V122.5V138.5C65 140.985 67.0147 143 69.5 143C71.9853 143 74 140.985 74 138.5V122.5V115.634C72.5357 115.875 71.0325 116 69.5 116Z" fill="#7FAF94"/>
<path d="M92 88.5C92 100.926 81.9264 111 69.5 111C57.0736 111 47 100.926 47 88.5C47 76.0736 57.0736 66 69.5 66C81.9264 66 92 76.0736 92 88.5Z" fill="#DCE6DC"/>
<path d="M92 88.5C92 100.926 81.9264 111 69.5 111C57.0736 111 47 100.926 47 88.5C47 76.0736 57.0736 66 69.5 66C81.9264 66 92 76.0736 92 88.5Z" fill="#0095BE" fill-opacity="0.15"/>
<path fill-rule="evenodd" clip-rule="evenodd" d="M42 88.5C42 73.3122 54.3122 61 69.5 61C84.6878 61 97 73.3122 97 88.5C97 102.155 87.0472 113.486 74 115.634C72.5357 115.875 71.0325 116 69.5 116C67.9675 116 66.4643 115.875 65 115.634C51.9528 113.486 42 102.155 42 88.5ZM92 88.5C92 100.926 81.9264 111 69.5 111C57.0736 111 47 100.926 47 88.5C47 76.0736 57.0736 66 69.5 66C81.9264 66 92 76.0736 92 88.5Z" fill="#DCE6DC"/>
<path fill-rule="evenodd" clip-rule="evenodd" d="M69.5 61C54.3122 61 42 73.3122 42 88.5C42 102.155 51.9528 113.486 65 115.634C66.4643 115.875 67.9675 116 69.5 116C71.0325 116 72.5357 115.875 74 115.634C87.0472 113.486 97 102.155 97 88.5C97 73.3122 84.6878 61 69.5 61ZM69.5 111C81.9264 111 92 100.926 92 88.5C92 76.0736 81.9264 66 69.5 66C57.0736 66 47 76.0736 47 88.5C47 100.926 57.0736 111 69.5 111Z" fill="#7FAF94"/>
<path d="M115.443 122.5C116.359 122.5 117.157 121.878 117.382 120.991L137.37 41.9906C137.69 40.7269 136.734 39.5 135.431 39.5H127.5H117H23.0479C22.1365 39.5 21.3404 40.1162 21.1118 40.9985L11.5 78.1047L0 122.5H65V115.634C51.9528 113.486 42 102.155 42 88.5C42 73.3122 54.3122 61 69.5 61C84.6878 61 97 73.3122 97 88.5C97 102.155 87.0472 113.486 74 115.634V122.5H115.443Z" fill="#DCE6DC"/>
</svg>
