<svg width="1280" height="832" viewBox="0 0 1280 832" fill="none" xmlns="http://www.w3.org/2000/svg">
<g clip-path="url(#clip0_1847_26572)">
<path d="M799.68 741.344C799.68 737.466 805.13 736.564 809.008 736.564H1335V744.212L809.008 746.102C805.131 746.116 799.68 745.221 799.68 741.344V741.344V741.344Z" fill="black" fill-opacity="0.2"/>
<path d="M723.203 741.168C723.203 745.143 717.674 746.125 713.699 746.125H390.603L207 741.168L390.603 732.742L713.7 736.147C717.678 736.189 723.203 737.19 723.203 741.168V741.168V741.168Z" fill="black" fill-opacity="0.2"/>
<path d="M800.903 699.533C803.571 701.832 805.726 703.609 806.368 707.165L809.872 706.551V702.632C808.159 700.836 805.788 698.716 803.269 697.372C801.491 696.423 799.494 698.091 800.903 699.533V699.533Z" fill="#A13663"/>
<path fill-rule="evenodd" clip-rule="evenodd" d="M809.306 700.995C809.319 701.031 809.332 701.068 809.345 701.105Z" fill="#313131"/>
<path d="M812.062 698.417C811.707 697.542 811.349 696.705 810.948 695.886C810.311 694.587 809.173 693.484 807.744 693.265V693.265V693.265C806.964 693.145 806.372 693.921 806.656 694.656C806.921 695.339 807.257 696.013 807.593 696.686C808.065 697.628 808.535 698.57 808.804 699.533C808.914 699.904 809.108 700.446 809.306 700.995L809.345 701.105C809.554 701.681 809.76 702.254 809.872 702.632L814.897 703.72V703.162L814.942 701.907C813.202 700.656 812.73 699.988 812.062 698.417Z" fill="#DAE53A"/>
<path d="M823.613 703.72L822.248 704.808L818.608 702.814L814.897 703.162V703.72L809.872 702.632V706.551L806.368 707.165H805.21L808.176 714.175C810.224 719.831 813.594 725.196 817.698 729.285L820.064 730.917C834.276 740.847 849.474 741.398 866.315 741.342C868.763 741.333 871.21 741.332 873.657 741.335C877.961 741.341 882.265 741.341 886.569 741.333C893.001 741.32 899.432 741.315 905.864 741.317C916.698 741.32 927.532 741.315 938.365 741.302C949.134 741.289 959.903 741.279 970.672 741.277L972.701 741.276L982.911 741.274C1006.99 741.27 1031.07 741.257 1055.14 741.236C1078.57 741.216 1101.99 741.2 1125.42 741.19L1127.61 741.189L1149.41 741.181C1164.23 741.176 1179.04 741.17 1193.86 741.163L1195.93 741.162C1241.97 741.142 1288.01 741.107 1334.05 741.07V727.29C1288.71 727.259 1243.37 727.225 1198.04 727.177L1195.98 727.175C1181.21 727.16 1166.44 727.143 1151.66 727.127L1129.91 727.103L1127.72 727.1C1104.3 727.074 1080.89 727.054 1057.47 727.039C1033.36 727.024 1009.26 727.002 985.149 726.97L974.932 726.957L972.901 726.955C962.125 726.941 951.349 726.933 940.573 726.93C929.687 726.926 918.8 726.917 907.913 726.898C901.443 726.886 894.972 726.877 888.501 726.881C884.149 726.883 879.798 726.88 875.446 726.869L875.165 726.868L875.161 726.868C873.251 726.863 871.341 726.857 869.431 726.854L869.423 726.854C866.665 726.86 863.907 726.865 861.148 726.856L858.638 726.844C850.431 726.894 842.21 725.906 834.883 721.953C829.687 718.348 826.121 713.766 824.432 707.709H826.616V702.632C825.976 702.632 825.617 702.632 825.284 702.725C824.861 702.843 824.479 703.111 823.613 703.72Z" fill="#313131"/>
<path d="M825.888 690.303C824.511 689.378 824.245 689.702 823.704 690.303C821.371 692.897 819.95 696.015 819.109 699.369L818.608 701.907V702.814L822.248 704.808C822.33 703.88 822.326 703.265 822.322 702.697C822.316 701.817 822.311 701.049 822.627 699.403C823.181 697.467 823.81 696.18 824.371 695.032C825.081 693.579 826.616 690.631 825.888 690.303Z" fill="#7D0004"/>
<path d="M814.923 697.329L814.942 699.105C814.947 699.337 814.945 699.933 814.943 700.525L814.942 700.634C814.94 701.178 814.939 701.7 814.942 701.907L814.897 703.162L818.608 702.814V701.907L818.229 692.51C818.229 692.51 817.6 690.631 816.972 690.631V690.631C816.023 690.631 815.503 691.718 815.269 692.638C815.032 693.571 814.945 694.455 814.897 695.57L814.923 697.329Z" fill="#1D7206"/>
<path d="M343.33 610.582C343.229 610.555 343.126 610.537 343.022 610.527C330.676 609.351 319.111 615.378 307.297 624.618C296.135 633.348 288.689 647.272 285.492 653.644C278.656 667.271 275.259 685.502 275.182 691.308C275.144 697.837 272.392 715.195 275.182 721.2C281.384 732.767 295.852 739.248 307.765 743.373C319.401 746.222 333.736 745.954 344.587 740.567C346.547 739.524 348.476 738.536 350.493 737.618C358.271 734.467 363.912 736.624 371.335 739.628C377.77 742.269 383.108 744.118 390.146 742.824C396.67 740.674 403.766 734.615 406.912 728.441L414.144 713.397C415.764 707.114 417.779 701.524 417.305 695.065C417.296 694.944 417.275 694.822 417.242 694.704C415.51 688.434 412.132 685.125 406.663 681.698C404.447 680.344 400.381 677.611 398.23 676.155C393.191 672.483 390.732 667.414 389.622 661.403C389.4 660.081 389.161 658.762 388.907 657.446L388.506 655.43C387.943 652.596 387.311 649.839 386.404 647.091C380.214 631.697 367.127 621.421 352.623 614.181C349.517 612.562 346.708 611.476 343.33 610.582Z" fill="black"/>
<path fill-rule="evenodd" clip-rule="evenodd" d="M414.144 713.397L406.912 728.441C426.521 733.655 446.188 737.604 466.427 739.322C467.612 739.421 468.798 739.524 469.983 739.628C488.591 741.482 488.591 741.482 529.423 741.419C534.583 741.411 539.743 741.408 544.902 741.409C554.119 741.409 563.336 741.404 572.553 741.392C581.494 741.381 590.436 741.373 599.378 741.374L601.058 741.374L602.736 741.374C613.016 741.375 623.296 741.371 633.576 741.364C636.676 741.362 639.775 741.36 642.874 741.359C647.82 741.359 652.767 741.357 657.713 741.35C659.534 741.347 661.355 741.344 663.175 741.342C665.71 741.342 668.244 741.343 670.778 741.338L673.076 741.333C683.687 741.351 693.735 739.303 703.195 734.325C713.626 727.36 719.246 717.253 722.266 705.27L720.815 705.497L717.476 706.069V703.672H717.133H713.484H708.694L708.866 702.151L708.388 702.143L703.903 702.074L703.105 700.475H699.912V704.471L703.105 705.27C701.648 709.644 699.333 713.779 696.116 717.105C685.84 725.35 673.202 726.291 660.562 726.246C659.295 726.241 658.028 726.239 656.762 726.24C653.284 726.245 649.806 726.245 646.328 726.238C642.604 726.229 638.88 726.227 635.156 726.227C628.868 726.228 622.58 726.223 616.292 726.213C609.851 726.202 603.41 726.192 596.97 726.192C592.413 726.192 587.856 726.197 583.298 726.201L583.273 726.201C560.122 726.223 536.966 726.246 513.822 725.736L511.644 725.685C504.696 725.526 497.753 725.289 490.81 724.961L488.707 724.859C481.614 724.517 474.562 723.938 467.508 723.122L465.193 722.848C452.617 721.369 440.284 719.49 427.978 716.471L427.45 716.34C424.283 715.557 421.144 714.78 417.908 714.318L414.144 713.397ZM712.212 690.68C712.187 690.22 712.229 689.599 712.272 688.983L712.212 690.68Z" fill="#313131"/>
<path d="M712.236 693.883C712.169 692.714 712.279 691.849 712.212 690.68C712.187 690.22 712.229 689.599 712.272 688.983L712.331 687.334V687.334C711.923 686.546 710.865 686.387 710.243 687.021L709.936 687.334C709.8 688.702 709.552 690.141 709.307 691.569L709.301 691.601L708.694 695.681L708.388 702.143L708.866 702.151L708.694 703.672H713.484C713.278 702.917 713.109 702.171 712.97 701.425C712.615 699.528 712.449 697.639 712.331 695.65L712.236 693.883Z" fill="#1D7206"/>
<path d="M701.368 691.58C703.481 695.394 704.268 697.691 703.903 702.074L708.388 702.143L708.694 695.681L707.933 693.99L706.897 691.786C705.824 689.459 705.067 688.02 703.31 686.945C702.369 686.37 701.144 686.918 700.924 687.999C700.687 689.161 700.77 690.225 701.368 691.58Z" fill="#7D0004"/>
<path d="M712.97 701.425C713.109 702.171 713.278 702.917 713.484 703.672H717.133L717.469 701.673L717.922 698.957C717.939 698.856 717.963 698.756 717.996 698.659L720.337 691.569L720.497 691.18C720.877 690.258 720.199 689.246 719.202 689.246V689.246C718.719 689.246 718.27 689.495 718.014 689.904L716.146 692.893C716.072 693.01 716.011 693.135 715.964 693.264L712.97 701.425Z" fill="#DAE53A"/>
<path d="M717.476 703.672V706.069L720.815 705.497C720.815 705.497 720.337 704.063 721.771 702.151C723.205 700.239 724.161 699.283 724.161 699.283L727.985 694.503L728.311 693.96C728.843 693.073 728.315 691.93 727.295 691.76V691.76C726.828 691.682 726.352 691.834 726.017 692.169L720.815 697.371L717.469 701.673L717.133 703.672H717.476Z" fill="#A13663"/>
<path d="M347.768 689.193C330.736 722.123 302.419 741.314 284.52 732.056C266.62 722.799 265.916 688.599 282.947 655.669C299.979 622.738 328.296 603.548 346.195 612.805C364.095 622.063 364.799 656.263 347.768 689.193Z" fill="#41423E"/>
<path d="M339.851 684.22C325.498 711.971 302.816 728.755 289.19 721.707C275.563 714.66 276.152 686.45 290.505 658.699C304.857 630.947 327.539 614.164 341.166 621.211C354.792 628.259 354.203 656.469 339.851 684.22Z" fill="black"/>
<path fill-rule="evenodd" clip-rule="evenodd" d="M311.662 685.074L247.286 652.565C242.34 650.104 239.924 650.438 236.14 653.206V653.206C234.423 656.611 235.776 660.765 239.17 662.506L298.986 693.181L311.662 685.074ZM245.218 656.701C245.218 658.224 243.983 659.458 242.46 659.458C240.938 659.458 239.703 658.224 239.703 656.701C239.703 655.178 240.938 653.944 242.46 653.944C243.983 653.944 245.218 655.178 245.218 656.701Z" fill="#6D6415"/>
<path d="M312.08 684.273L245.382 650.188C241.998 648.458 237.852 649.812 236.14 653.206V653.206C239.924 650.438 242.34 650.104 247.286 652.565L311.662 685.074L312.08 684.273Z" fill="#C9B356"/>
<path fill-rule="evenodd" clip-rule="evenodd" d="M333.719 642.337L269.342 609.829C264.397 607.368 261.981 607.701 258.197 610.469V610.469C256.479 613.875 257.833 618.029 261.227 619.769L321.043 650.444L333.719 642.337ZM267.274 613.965C267.274 615.488 266.04 616.722 264.517 616.722C262.994 616.722 261.76 615.488 261.76 613.965C261.76 612.442 262.994 611.208 264.517 611.208C266.04 611.208 267.274 612.442 267.274 613.965Z" fill="#6D6415"/>
<path d="M334.137 641.537L267.439 607.451C264.054 605.722 259.908 607.075 258.197 610.469V610.469C261.981 607.701 264.397 607.368 269.342 609.829L333.719 642.337L334.137 641.537Z" fill="#C9B356"/>
</g>
<defs>
<clipPath id="clip0_1847_26572">
<rect width="1280" height="832" fill="white"/>
</clipPath>
</defs>
</svg>
